<svg width="75" height="75" viewBox="0 0 75 75" fill="none" xmlns="http://www.w3.org/2000/svg">
<mask id="mask0_32_222" style="mask-type:alpha" maskUnits="userSpaceOnUse" x="0" y="0" width="75" height="75">
<rect width="75" height="75" fill="#D9D9D9"/>
</mask>
<g mask="url(#mask0_32_222)">
<path d="M37.25 66.3438L32.7188 62.2813C27.4583 57.5417 23.1094 53.4531 19.6719 50.0156C16.2344 46.5781 13.5 43.4922 11.4688 40.7578C9.4375 38.0234 8.01823 35.5104 7.21094 33.2188C6.40365 30.9271 6 28.5833 6 26.1875C6 21.2917 7.64062 17.2031 10.9219 13.9219C14.2031 10.6406 18.2917 9 23.1875 9C25.8958 9 28.474 9.57292 30.9219 10.7188C33.3698 11.8646 35.4792 13.4792 37.25 15.5625C39.0208 13.4792 41.1302 11.8646 43.5781 10.7188C46.026 9.57292 48.6042 9 51.3125 9C56.2083 9 60.2969 10.6406 63.5781 13.9219C66.8594 17.2031 68.5 21.2917 68.5 26.1875C68.5 28.5833 68.0964 30.9271 67.2891 33.2188C66.4818 35.5104 65.0625 38.0234 63.0312 40.7578C61 43.4922 58.2656 46.5781 54.8281 50.0156C51.3906 53.4531 47.0417 57.5417 41.7812 62.2813L37.25 66.3438ZM37.25 57.9062C42.25 53.4271 46.3646 49.5859 49.5938 46.3828C52.8229 43.1797 55.375 40.3932 57.25 38.0234C59.125 35.6536 60.4271 33.5443 61.1562 31.6953C61.8854 29.8464 62.25 28.0104 62.25 26.1875C62.25 23.0625 61.2083 20.4583 59.125 18.375C57.0417 16.2917 54.4375 15.25 51.3125 15.25C48.8646 15.25 46.599 15.9401 44.5156 17.3203C42.4323 18.7005 41 20.4583 40.2188 22.5938H34.2812C33.5 20.4583 32.0677 18.7005 29.9844 17.3203C27.901 15.9401 25.6354 15.25 23.1875 15.25C20.0625 15.25 17.4583 16.2917 15.375 18.375C13.2917 20.4583 12.25 23.0625 12.25 26.1875C12.25 28.0104 12.6146 29.8464 13.3438 31.6953C14.0729 33.5443 15.375 35.6536 17.25 38.0234C19.125 40.3932 21.6771 43.1797 24.9062 46.3828C28.1354 49.5859 32.25 53.4271 37.25 57.9062Z" fill="#28231C"/>
</g>
</svg>
