<svg width="285" height="63" viewBox="0 0 285 63" fill="none" xmlns="http://www.w3.org/2000/svg">
<g clip-path="url(#clip0_40_166)">
<path d="M12.57 57.92C11.1446 57.516 9.74536 57.025 8.38 56.45C8.3 48.9367 8.32333 41.4533 8.45 34C8.57667 26.5467 8.44667 19.0533 8.06 11.52C6.79767 10.9971 5.50539 10.5497 4.19 10.18C2.83151 9.78466 1.49611 9.31393 0.19 8.77L0 8.45V2.56C1.2671 1.76322 2.71946 1.30928 4.21478 1.24266C5.7101 1.17605 7.19707 1.49904 8.53 2.18C12.09 3.46 15.6433 4.66333 19.19 5.79C22.7367 6.91667 26.34 8.14334 30 9.47L30.19 9.79V15.55L30 15.81C28.7575 16.4752 27.3801 16.8497 25.9718 16.9051C24.5635 16.9606 23.161 16.6955 21.87 16.13C21.6567 23.0367 21.5933 29.9367 21.68 36.83C21.7667 43.7233 21.7667 50.6467 21.68 57.6L21.43 57.92C20.71 58.22 19.97 58.51 19.21 58.78C18.4514 59.0579 17.6678 59.2622 16.87 59.39H16.68C15.3468 58.8027 13.9733 58.3115 12.57 57.92ZM4.16 8.9C4.03126 8.18041 4.01103 7.44559 4.1 6.72C4.19024 6.01623 4.1564 5.30208 4 4.61C3.49 4.44 3 4.26 2.53 4.06L1.15 3.52L0.83 3.71C0.87003 4.44612 0.87003 5.18388 0.83 5.92C0.788613 6.58736 0.812056 7.25717 0.9 7.92C1.37131 8.15508 1.86342 8.3459 2.37 8.49C2.86125 8.627 3.33454 8.82169 3.78 9.07L4.16 8.9ZM5.76 3.23C6.23398 3.20783 6.69477 3.06684 7.1 2.82C6.71581 2.61541 6.30996 2.45441 5.89 2.34C5.5 2.23 5.12 2.11 4.74 2C3.82177 2.16104 2.93438 2.46471 2.11 2.9C2.49351 2.95192 2.86949 3.04927 3.23 3.19C3.64 3.34 4.07 3.52 4.54 3.73C4.8749 3.42455 5.30706 3.24743 5.76 3.23ZM8.26 10.23C8.1684 9.48877 8.17849 8.7385 8.29 8C8.38675 7.26048 8.28672 6.50851 8 5.82C7.52116 5.77585 7.05394 5.6472 6.62 5.44C6.22321 5.25032 5.8076 5.10284 5.38 5L5.06 5.13V9.13L5.38 9.58C5.83565 9.65188 6.2775 9.79354 6.69 10C7.14 10.19 7.57 10.38 8 10.55L8.26 10.23ZM9.89 4.61C10.267 4.52947 10.638 4.42254 11 4.29L11.25 4.1C10.4287 3.83951 9.58513 3.6554 8.73 3.55C8.30958 3.49477 7.88216 3.53241 7.47786 3.66026C7.07356 3.78812 6.70222 4.00308 6.39 4.29C6.8066 4.36877 7.215 4.48594 7.61 4.64L8.82 5.12C9.1244 4.85701 9.49401 4.68084 9.89 4.61ZM12.61 34.18C12.5246 33.4567 12.5012 32.7273 12.54 32C12.5854 31.3063 12.5653 30.6099 12.48 29.92C12.0376 29.6725 11.5631 29.4874 11.07 29.37C10.5832 29.2643 10.1102 29.1033 9.66 28.89L9.28 29C9.32003 29.7361 9.32003 30.4739 9.28 31.21C9.23825 31.8795 9.28193 32.5516 9.41 33.21C9.85461 33.4504 10.3286 33.6319 10.82 33.75C11.3181 33.8719 11.7916 34.0782 12.22 34.36L12.61 34.18ZM12.61 11.71C12.4901 10.9581 12.4901 10.1919 12.61 9.44C12.7131 8.69066 12.613 7.92736 12.32 7.23C11.7566 7.14814 11.2078 6.98652 10.69 6.75C10.248 6.54054 9.76863 6.42155 9.28 6.4V10.5L9.54 10.88C9.9806 11.0826 10.4393 11.2433 10.91 11.36C11.3711 11.4739 11.8126 11.6559 12.22 11.9L12.61 11.71ZM12.61 17.34C12.4901 16.5881 12.4901 15.8219 12.61 15.07C12.7122 14.3207 12.612 13.5576 12.32 12.86C11.8806 12.6905 11.4294 12.5534 10.97 12.45C10.515 12.3598 10.0744 12.2084 9.66 12L9.28 12.13V16.13C9.45333 16.43 9.62333 16.6 9.79 16.64C10.1735 16.6919 10.5495 16.7893 10.91 16.93C11.32 17.08 11.75 17.26 12.22 17.47L12.61 17.34ZM12.61 23.04C12.4821 22.2902 12.4586 21.5263 12.54 20.77C12.6305 20.032 12.5899 19.2838 12.42 18.56C11.82 18.39 11.27 18.22 10.78 18.05C10.3562 17.9067 9.94199 17.7364 9.54 17.54L9.28 17.86V21.7L9.54 22.14C9.98832 22.3059 10.4457 22.4461 10.91 22.56C11.3711 22.6739 11.8126 22.8559 12.22 23.1L12.61 23.04ZM12.61 28.48C12.4823 27.7739 12.4587 27.0529 12.54 26.34C12.6307 25.6453 12.59 24.9397 12.42 24.26C11.9499 24.0194 11.4531 23.8348 10.94 23.71C10.456 23.6058 9.98608 23.4447 9.54 23.23L9.28 23.42V27.42C9.68316 27.8531 10.231 28.1235 10.82 28.18C11.3561 28.2259 11.867 28.4275 12.29 28.76L12.61 28.48ZM12.61 39.74C12.4831 39.0237 12.4595 38.293 12.54 37.57C12.6289 36.8652 12.5882 36.1501 12.42 35.46C11.9529 35.2195 11.4549 35.0445 10.94 34.94C10.4473 34.8524 9.97361 34.6798 9.54 34.43L9.28 34.62V38.72C9.70333 39.0986 10.222 39.3545 10.78 39.46C11.3128 39.5435 11.8251 39.7267 12.29 40L12.61 39.74ZM12.61 45.5C12.4901 44.7481 12.4901 43.9819 12.61 43.23C12.7064 42.4714 12.5958 41.7009 12.29 41C11.8497 40.825 11.3988 40.678 10.94 40.56C10.5032 40.4405 10.0755 40.2902 9.66 40.11L9.28 40.24V44.24C9.38445 44.4649 9.56511 44.6455 9.79 44.75C10.6335 44.8855 11.4524 45.145 12.22 45.52L12.61 45.5ZM12.61 50.94C12.4822 50.2339 12.4586 49.5129 12.54 48.8C12.6305 48.1053 12.5898 47.3997 12.42 46.72C11.9545 46.478 11.4558 46.3061 10.94 46.21C10.4498 46.1133 9.97754 45.9412 9.54 45.7L9.28 45.89V49.89C9.70643 50.27 10.2227 50.535 10.78 50.66C11.3096 50.7715 11.8189 50.9637 12.29 51.23L12.61 50.94ZM12.61 56.7C12.4901 55.9481 12.4901 55.1819 12.61 54.43C12.7156 53.7036 12.6151 52.9621 12.32 52.29C11.8885 52.0745 11.4362 51.9036 10.97 51.78C10.5 51.65 10.08 51.52 9.69 51.39L9.31 51.46V55.46L9.57 55.84C10.0183 56.0059 10.4757 56.1461 10.94 56.26C11.4011 56.3739 11.8426 56.5559 12.25 56.8L12.61 56.7ZM14.21 6C14.6217 5.89779 15.0113 5.72159 15.36 5.48C13.4 4.81333 11.8 4.85667 10.56 5.61C10.9 5.7 11.27 5.81 11.68 5.96C12.1068 6.11946 12.5241 6.30309 12.93 6.51C13.3311 6.28175 13.7618 6.11012 14.21 6ZM16.77 35.5V31.74L16.38 31.1L16.19 31C15.7486 30.9649 15.316 30.8568 14.91 30.68L13.76 30.17L13.44 30.36C13.48 31.0961 13.48 31.8339 13.44 32.57C13.3974 33.2395 13.4411 33.9117 13.57 34.57C14.0255 34.8252 14.5043 35.0361 15 35.2C15.477 35.3412 15.9366 35.5357 16.37 35.78L16.77 35.5ZM16.77 58.03C16.68 57.3061 16.68 56.5739 16.77 55.85C16.849 55.141 16.7844 54.4234 16.58 53.74L15.1 53.23C14.6415 53.0652 14.1939 52.8715 13.76 52.65L13.44 52.84C13.48 53.5761 13.48 54.3139 13.44 55.05C13.3979 55.7195 13.4416 56.3916 13.57 57.05C14.0307 57.2856 14.5129 57.4765 15.01 57.62C15.487 57.7612 15.9466 57.9557 16.38 58.2L16.77 58.03ZM16.77 13.1C16.6699 12.3466 16.6699 11.5834 16.77 10.83C16.8782 10.0807 16.7779 9.31603 16.48 8.62C15.9201 8.5382 15.3726 8.38704 14.85 8.17C14.394 7.97498 13.9057 7.86647 13.41 7.85V11.85L13.73 12.24C14.1481 12.4468 14.5873 12.6078 15.04 12.72C15.5011 12.8339 15.9426 13.0159 16.35 13.26L16.77 13.1ZM16.77 18.73C16.6703 17.9967 16.6703 17.2533 16.77 16.52C16.8748 15.751 16.7747 14.968 16.48 14.25C16.0074 14.2081 15.5448 14.0899 15.11 13.9L13.86 13.36L13.41 13.48V17.48L13.73 17.92C14.154 18.0892 14.5925 18.2198 15.04 18.31C15.5051 18.3952 15.9497 18.5683 16.35 18.82L16.77 18.73ZM16.77 24.3V20.48C16.64 20.27 16.53 20.11 16.45 20L16.26 19.78C15.7587 19.7723 15.2659 19.6491 14.82 19.42C14.3913 19.2034 13.9201 19.0839 13.44 19.07V23.07L13.76 23.52C14.19 23.69 14.62 23.84 15.07 23.97C15.5311 24.1026 15.9719 24.2977 16.38 24.55L16.77 24.3ZM16.77 30V26C16.6394 25.7947 16.4653 25.6206 16.26 25.49C15.83 25.3905 15.4087 25.2567 15 25.09C14.55 24.92 14.18 24.77 13.88 24.64L13.43 24.77V28.77L13.75 29.15C14.1616 29.3648 14.6032 29.5165 15.06 29.6C15.5225 29.6943 15.9655 29.8667 16.37 30.11L16.77 30ZM16.77 41.2C16.6702 40.4667 16.6702 39.7233 16.77 38.99C16.8782 38.2407 16.7779 37.476 16.48 36.78C15.936 36.6979 15.407 36.5361 14.91 36.3C14.4422 36.0734 13.9298 35.9538 13.41 35.95V39.95L13.73 40.4C14.1453 40.6061 14.5857 40.7574 15.04 40.85C15.4955 40.933 15.9367 41.0812 16.35 41.29L16.77 41.2ZM16.77 46.76C16.68 46.0495 16.68 45.3305 16.77 44.62C16.852 43.921 16.7873 43.2126 16.58 42.54C16.06 42.33 15.58 42.13 15.1 41.96C14.6434 41.7943 14.1961 41.604 13.76 41.39L13.44 41.64V45.64L13.76 46.08C14.6748 46.2419 15.5588 46.5455 16.38 46.98L16.77 46.76ZM16.77 52.33C16.68 51.6295 16.68 50.9205 16.77 50.22C16.8493 49.511 16.7847 48.7934 16.58 48.11C16.1145 47.868 15.6158 47.6961 15.1 47.6C14.6256 47.509 14.1716 47.3328 13.76 47.08L13.44 47.28V51.37C13.9046 51.7175 14.4355 51.966 15 52.1C15.5336 52.2194 16.0484 52.4112 16.53 52.67L16.77 52.33ZM17.22 7.85C17.6335 7.60318 18.087 7.43058 18.56 7.34C18.972 7.27746 19.3649 7.12372 19.71 6.89C17.6233 6.09 15.94 6.12667 14.66 7C15.38 7.21 16.19 7.49 17.09 7.83L17.22 7.85ZM20.74 14.7C20.9563 14.0153 21.0444 13.2966 21 12.58C20.9452 11.8877 20.9452 11.1923 21 10.5L20.74 10.11C20.301 9.91071 19.8417 9.75982 19.37 9.66C18.8849 9.5793 18.4198 9.40616 18 9.15L17.68 9.34C17.7545 10.0848 17.7545 10.8352 17.68 11.58C17.608 12.264 17.6383 12.9549 17.77 13.63C18.28 13.85 18.77 14.03 19.24 14.18C19.7197 14.3337 20.1904 14.514 20.65 14.72L20.74 14.7ZM21.44 9.26C21.8221 8.99994 22.2611 8.83533 22.72 8.78C23.1537 8.7365 23.5595 8.54595 23.87 8.24C23.1474 8.18288 22.4468 7.96416 21.82 7.6C20.8208 7.71577 19.8476 7.99623 18.94 8.43C19.37 8.56 19.78 8.68 20.16 8.81C20.54 8.94 20.93 9.09 21.31 9.26H21.44ZM25.22 15.92C25.1048 15.1778 25.1048 14.4222 25.22 13.68C25.3321 12.9414 25.2351 12.1863 24.94 11.5C23.9651 11.0583 22.9248 10.778 21.86 10.67V14.67C21.9631 14.8993 22.1487 15.0814 22.38 15.18C22.7958 15.2676 23.2013 15.3983 23.59 15.57C23.9859 15.745 24.3935 15.892 24.81 16.01L25.22 15.92ZM26.82 10.22C27.2289 10.1238 27.625 9.97942 28 9.79C27.5793 9.59706 27.1405 9.44632 26.69 9.34C26.274 9.26324 25.8657 9.14945 25.47 9C25.0736 9.21603 24.6544 9.38709 24.22 9.51C23.8761 9.61104 23.5415 9.74152 23.22 9.9C23.6553 9.97128 24.077 10.1096 24.47 10.31C24.8416 10.5048 25.2389 10.6462 25.65 10.73C26.0206 10.5237 26.413 10.3594 26.82 10.24V10.22Z" fill="#07004D"/>
<path d="M33.7599 61.47C33.0334 61.2992 32.3336 61.0301 31.6799 60.67V8.83C35.8933 7.17 40.1599 5.67667 44.4799 4.35C48.7999 3.02333 53.1299 1.57333 57.4699 0C58.2798 0.00898351 59.0781 0.193204 59.8099 0.54C60.6013 0.905467 61.4248 1.19672 62.2699 1.41L62.3999 1.73V7.68C62.3382 7.67917 62.2776 7.69682 62.2259 7.73067C62.1742 7.76452 62.1338 7.81304 62.1099 7.87C62.0194 8.02536 61.8726 8.13995 61.6999 8.19C60.3266 8.66333 58.9066 9.12333 57.4399 9.57C55.9699 10.02 54.5099 10.57 53.0599 11.14C51.5999 11.56 50.2599 11.97 49.0599 12.35C47.8599 12.73 46.6699 13.14 45.6099 13.57L45.2899 14.02V26.5L45.6099 26.82C47.7433 26.22 49.7699 25.58 51.6899 24.9C52.7244 24.5218 53.8351 24.3997 54.927 24.5442C56.0189 24.6888 57.0595 25.0956 57.9599 25.73L58.1499 25.98V31.98C56.2259 32.8425 54.2485 33.5807 52.2299 34.19C50.0833 34.8567 47.9833 35.5233 45.9299 36.19L45.7399 36.26C45.6866 36.26 45.5366 36.45 45.2899 36.83C45.3299 39.01 45.3299 41.1433 45.2899 43.23C45.2247 45.3658 45.2982 47.5037 45.5099 49.63C48.2939 49.1744 50.9897 48.287 53.4999 47C54.7594 46.3268 56.1633 45.9689 57.5913 45.9567C59.0194 45.9445 60.4291 46.2784 61.6999 46.93C61.9283 47.0277 62.1406 47.1592 62.3299 47.32C62.4164 48.3175 62.4398 49.3195 62.3999 50.32C62.3999 51.32 62.3999 52.32 62.3999 53.32L62.2699 53.64L55.1999 56C52.8266 56.7733 50.4266 57.5633 47.9999 58.37C45.9066 59.0367 43.9066 59.73 41.9999 60.45C40.0496 61.1943 38.0433 61.7828 35.9999 62.21H35.8099C35.1583 61.883 34.4702 61.6346 33.7599 61.47ZM35.9999 15.1C35.873 14.3837 35.8494 13.653 35.9299 12.93C36.0188 12.2252 35.9781 11.5101 35.8099 10.82C35.3198 10.5844 34.8026 10.4098 34.2699 10.3C33.7856 10.2148 33.3272 10.0198 32.9299 9.73L32.6099 9.98V14.08C33.0507 14.432 33.5624 14.6844 34.1099 14.82C34.6551 14.9573 35.1821 15.1587 35.6799 15.42L35.9999 15.1ZM35.9999 20.93C35.8797 20.1882 35.8797 19.4318 35.9999 18.69C36.1051 17.9308 36.005 17.1574 35.7099 16.45C35.2659 16.2396 34.8041 16.0689 34.3299 15.94C33.8799 15.81 33.4699 15.68 33.0799 15.55L32.6399 15.62V19.71C32.8499 20.05 33.0199 20.25 33.1499 20.29C34.0124 20.4265 34.8509 20.6858 35.6399 21.06L35.9999 20.93ZM35.9999 26.5C35.8721 25.7906 35.8486 25.0663 35.9299 24.35C36.0187 23.6352 35.9781 22.9103 35.8099 22.21C35.309 22.0128 34.7943 21.8523 34.2699 21.73C33.7963 21.6209 33.3436 21.4351 32.9299 21.18L32.6099 21.38V25.47C33.0313 25.8574 33.5496 26.1234 34.1099 26.24C34.6583 26.3572 35.187 26.5525 35.6799 26.82L35.9999 26.5ZM35.9999 32.19V28.29L35.6799 27.84C35.2133 27.6733 34.7533 27.5233 34.2999 27.39C33.8554 27.2744 33.4208 27.1239 32.9999 26.94L32.5599 27.01V31.17C32.6721 31.375 32.8526 31.5342 33.0699 31.62C33.9317 31.819 34.7673 32.1177 35.5599 32.51L35.9999 32.19ZM35.9999 38.08V34.08L35.6799 33.57C35.107 33.4458 34.5452 33.2753 33.9999 33.06C33.5619 32.8479 33.0859 32.7255 32.5999 32.7V36.86C32.7078 37.0684 32.8897 37.2289 33.1099 37.31C33.5293 37.3986 33.9359 37.5397 34.3199 37.73C34.7309 37.9291 35.1594 38.0898 35.5999 38.21L35.9999 38.08ZM35.9999 43.78C35.8797 43.0382 35.8797 42.2818 35.9999 41.54C36.1051 40.7808 36.005 40.0074 35.7099 39.3C35.2689 39.09 34.8061 38.9291 34.3299 38.82C33.8669 38.7211 33.4194 38.5596 32.9999 38.34L32.5599 38.46V42.56C32.7333 42.86 32.9033 43.03 33.0699 43.07C33.4522 43.1279 33.8276 43.2251 34.1899 43.36L35.5599 43.9L35.9999 43.78ZM35.9999 49.6C35.872 48.8401 35.8484 48.0663 35.9299 47.3C36.0089 46.5303 35.9582 45.7529 35.7799 45C35.2199 44.83 34.7099 44.69 34.2399 44.59C33.759 44.4828 33.3038 44.2823 32.8999 44L32.5799 44.32V48.32L32.8999 48.7C33.3173 48.9084 33.7567 49.0694 34.2099 49.18C34.6874 49.3021 35.1476 49.4835 35.5799 49.72L35.9999 49.6ZM35.9999 55.23C35.8799 54.468 35.8799 53.692 35.9999 52.93C36.1051 52.1708 36.005 51.3974 35.7099 50.69C34.7251 50.2989 33.6928 50.04 32.6399 49.92V54C32.7754 54.1825 32.9495 54.3328 33.1499 54.44C33.5693 54.5286 33.9759 54.6697 34.3599 54.86C34.7709 55.0592 35.1994 55.2198 35.6399 55.34L35.9999 55.23ZM35.9999 61C35.8718 60.2401 35.8483 59.4663 35.9299 58.7C36.0213 57.9521 35.9807 57.1939 35.8099 56.46C35.2684 56.3775 34.7404 56.2228 34.2399 56C33.8101 55.8039 33.361 55.6531 32.8999 55.55L32.5799 55.74V59.65L32.8999 60.03C33.3164 60.248 33.7557 60.419 34.2099 60.54C34.6796 60.677 35.1377 60.8509 35.5799 61.06L35.9999 61ZM37.5999 9.44C38.0438 9.33111 38.4664 9.14858 38.8499 8.9C38.4096 8.7385 37.9585 8.60818 37.4999 8.51C37.0833 8.43042 36.6773 8.3029 36.2899 8.13C35.8747 8.33511 35.4432 8.50568 34.9999 8.64C34.6315 8.7329 34.2704 8.85324 33.9199 9C34.7585 9.25926 35.5718 9.59396 36.3499 10C36.7322 9.7444 37.1547 9.55507 37.5999 9.44ZM40.6999 8.44C41.1228 8.18264 41.5914 8.00947 42.0799 7.93C42.5007 7.86543 42.903 7.71203 43.2599 7.48C41.1299 6.62 39.4199 6.65 38.1399 7.54C38.5699 7.67 38.9799 7.81 39.3599 7.96L40.5799 8.44H40.6999ZM46.2699 6.5C46.7264 6.43624 47.1776 6.33932 47.6199 6.21C47.2486 6.02314 46.8601 5.87245 46.4599 5.76C46.105 5.66347 45.7675 5.51161 45.4599 5.31C44.436 5.41829 43.4506 5.76043 42.5799 6.31C42.9632 6.363 43.3391 6.46032 43.6999 6.6L45.0799 7.14C45.3903 6.79508 45.811 6.56882 46.2699 6.5ZM45.7599 29.63C46.0219 29.4326 46.3334 29.3115 46.6599 29.28C46.957 29.2564 47.2429 29.1565 47.4899 28.99C46.9281 28.7576 46.3499 28.5671 45.7599 28.42L45.4399 28.61C45.4897 28.7764 45.4897 28.9536 45.4399 29.12C45.408 29.2053 45.3996 29.2976 45.4154 29.3873C45.4312 29.477 45.4708 29.5608 45.5299 29.63H45.7599ZM47.4899 51.9C47.2523 51.7258 46.9791 51.6063 46.6899 51.55C46.3796 51.4922 46.0838 51.3732 45.8199 51.2L45.4399 51.33C45.4891 51.5607 45.4891 51.7993 45.4399 52.03C45.4175 52.0775 45.4054 52.1293 45.4045 52.1818C45.4036 52.2343 45.4139 52.2865 45.4347 52.3347C45.4555 52.383 45.4864 52.4262 45.5252 52.4616C45.564 52.497 45.61 52.5237 45.6599 52.54C46.2286 52.223 46.8477 52.0065 47.4899 51.9ZM50.5899 5.09C51.0399 4.94 51.4299 4.82 51.7799 4.74C51.007 4.34099 50.1498 4.13278 49.2799 4.13278C48.4101 4.13278 47.5529 4.34099 46.7799 4.74C47.6227 4.94856 48.4408 5.24693 49.2199 5.63C49.6667 5.42587 50.124 5.24561 50.5899 5.09ZM50.5899 27.94C51.0174 27.8698 51.4299 27.7278 51.8099 27.52C50.9835 27.1812 50.1261 26.9233 49.2499 26.75C48.8125 26.8418 48.3842 26.9723 47.9699 27.14C47.5927 27.294 47.2051 27.4209 46.8099 27.52C47.1853 27.7283 47.585 27.8895 47.9999 28C48.4187 28.0987 48.8199 28.2606 49.1899 28.48C49.6004 28.1997 50.0686 28.0152 50.5599 27.94H50.5899ZM50.5899 50.88C51.0128 50.7516 51.4215 50.5807 51.8099 50.37C51.0315 49.9893 50.1765 49.7914 49.3099 49.7914C48.4434 49.7914 47.5883 49.9893 46.8099 50.37L48.0299 50.85L49.2499 51.33C49.6799 51.16 50.1299 51 50.5599 50.88H50.5899ZM54.8099 3.68C55.2708 3.57782 55.7224 3.43733 56.1599 3.26C55.7299 3.09 55.3199 2.96 54.9399 2.85C54.5474 2.73665 54.1631 2.59632 53.7899 2.43L52.3499 2.85C51.9121 2.97643 51.4921 3.15788 51.0999 3.39C51.4825 3.44673 51.8579 3.54394 52.2199 3.68C52.6333 3.83333 53.0933 4.01333 53.5999 4.22C53.9532 3.96298 54.3545 3.77936 54.7799 3.68H54.8099ZM54.8099 26.56C55.2347 26.4987 55.6409 26.3451 55.9999 26.11C55.2547 25.6494 54.3913 25.4164 53.5155 25.4395C52.6398 25.4626 51.7898 25.7408 51.0699 26.24C51.515 26.2742 51.9494 26.393 52.3499 26.59C52.7375 26.7803 53.1474 26.9214 53.5699 27.01C53.9501 26.781 54.3713 26.6281 54.8099 26.56ZM54.8099 49.41C55.2579 49.3473 55.6745 49.1442 55.9999 48.83C55.557 48.784 55.1246 48.6657 54.7199 48.48C54.3559 48.3075 53.9684 48.1895 53.5699 48.13C53.1454 48.3839 52.6775 48.5568 52.1899 48.64C51.7957 48.6936 51.4154 48.8226 51.0699 49.02C51.5138 49.1008 51.9445 49.2421 52.3499 49.44C52.743 49.6325 53.151 49.7931 53.5699 49.92C53.9544 49.6588 54.3912 49.4847 54.8499 49.41H54.8099ZM59.1699 2.24C59.3909 2.23942 59.6095 2.19391 59.8123 2.10624C60.0152 2.01856 60.1981 1.89056 60.3499 1.73C59.5059 1.47908 58.6378 1.31819 57.7599 1.25C56.8932 1.19107 56.0296 1.40433 55.2899 1.86C55.6827 2.09905 56.123 2.24923 56.5799 2.3C57.0301 2.35935 57.4628 2.51266 57.8499 2.75C58.2218 2.43927 58.6858 2.25999 59.1699 2.24ZM59.0999 48C59.5449 47.7919 60.0065 47.6213 60.4799 47.49C60.0004 47.3974 59.5289 47.2669 59.0699 47.1C58.5999 46.93 58.1799 46.78 57.7899 46.66C57.3689 46.8678 56.9306 47.0384 56.4799 47.17L55.2899 47.49L57.7899 48.49C58.2447 48.3799 58.6845 48.2154 59.0999 48Z" fill="#07004D"/>
<path d="M70.4299 59.94C69.7699 59.74 69.0799 59.5 68.3499 59.2C68.3099 58.7308 68.3099 58.2591 68.3499 57.79C68.3904 57.3052 68.3006 56.8184 68.0899 56.38C67.4732 56.0948 66.8301 55.8704 66.1699 55.71C65.5021 55.5565 64.8568 55.3179 64.2499 55C64.1299 48.4333 64.0999 41.8833 64.1599 35.35C64.2199 28.8167 64.2199 22.2233 64.1599 15.57C64.734 15.2085 65.3525 14.9228 65.9999 14.72C66.7099 14.51 67.3999 14.27 68.0799 14.02L68.3399 13.63V8.57999L68.5999 8.31999C72.1601 7.58632 75.607 6.38243 78.8499 4.73999C80.4353 3.88502 82.1812 3.36887 83.9766 3.22427C85.7721 3.07967 87.578 3.30977 89.2799 3.89999C89.4621 4.04097 89.6525 4.17119 89.8499 4.28999C89.9379 4.66664 89.9616 5.05545 89.9199 5.43999C89.8865 5.82515 89.9135 6.21317 89.9999 6.58999L90.2599 6.97999C90.8599 7.22999 91.4799 7.46999 92.1499 7.67999C92.8199 7.88999 93.4599 8.12999 94.1499 8.37999C94.2299 10.3 94.2499 12.22 94.2099 14.14C94.1699 16.06 94.1699 17.98 94.2099 19.9L93.8299 20.35C92.7165 20.65 91.6265 20.96 90.5599 21.28C89.4999 21.6 88.4299 21.97 87.3599 22.4C86.3161 22.811 85.1852 22.9504 84.0728 22.8053C82.9605 22.6601 81.9032 22.2351 80.9999 21.57C80.8901 20.259 80.8901 18.941 80.9999 17.63C81.0798 16.2937 81.0161 14.9527 80.8099 13.63C79.7344 13.8651 78.6832 14.1999 77.6699 14.63C77.4632 20.5233 77.3999 26.3467 77.4799 32.1C77.5599 37.8533 77.5366 43.68 77.4099 49.58L77.7299 49.9C78.1744 49.8291 78.6038 49.6838 78.9999 49.47C79.4193 49.2607 79.8626 49.1029 80.3199 49L80.5099 48.94L80.9599 48.36V37.89L81.1499 37.63L84.3199 36.63C85.3199 36.29 86.4199 35.9 87.4899 35.48C88.5454 35.0782 89.6811 34.9321 90.804 35.0538C91.9268 35.1754 93.0049 35.5614 93.9499 36.18L94.1399 36.5V47.94C93.8914 48.061 93.6567 48.2085 93.4399 48.38C93.3312 48.3433 93.2148 48.3359 93.1024 48.3588C92.99 48.3816 92.8856 48.4338 92.7999 48.51C92.5936 48.664 92.3468 48.7544 92.0899 48.77C91.6728 48.927 91.2451 49.054 90.8099 49.15C90.6381 49.1816 90.4751 49.2498 90.3319 49.3498C90.1887 49.4499 90.0686 49.5795 89.9799 49.73V54.73L89.7299 55.05C86.8699 56.03 84.0199 57.03 81.1799 58.05C78.3399 59.07 75.4499 59.9533 72.5099 60.7H72.3799C71.7511 60.3953 71.099 60.1411 70.4299 59.94ZM68.2899 21.76V17.76C68.1412 17.5665 67.9662 17.3949 67.7699 17.25C67.2519 17.203 66.7452 17.0712 66.2699 16.86C65.8732 16.6621 65.4419 16.5433 64.9999 16.51V20.51L65.3199 20.9C65.7373 21.1084 66.1767 21.2694 66.6299 21.38C67.0816 21.5226 67.5096 21.7315 67.8999 22L68.2899 21.76ZM68.2899 27.39C68.1752 26.6377 68.1752 25.8723 68.2899 25.12C68.3788 24.4001 68.2788 23.6695 67.9999 23C67.5588 22.79 67.096 22.6291 66.6199 22.52C66.1951 22.4163 65.7802 22.2758 65.3799 22.1L64.9299 22.16V26.16L65.1799 26.41L65.4399 26.67C65.8591 26.7214 66.2694 26.829 66.6599 26.99C67.0799 27.16 67.4899 27.31 67.8699 27.44L68.2899 27.39ZM68.2899 32.9C68.203 32.1768 68.1796 31.4473 68.2199 30.72C68.257 30.0528 68.2369 29.3837 68.1599 28.72C67.5892 28.4427 67.0013 28.2022 66.3999 28C65.9462 27.8365 65.4771 27.7193 64.9999 27.65V31.65L65.3199 32.03C65.7335 32.247 66.174 32.4084 66.6299 32.51C67.0928 32.6231 67.5349 32.8087 67.9399 33.06L68.2899 32.9ZM68.2899 38.46V34.46C68.1379 34.2666 67.9633 34.092 67.7699 33.94C67.318 33.8903 66.8763 33.7723 66.4599 33.59C66.0132 33.3967 65.6799 33.2367 65.4599 33.11L65.0099 33.24V37.24L65.3299 37.63C65.7571 37.8035 66.1946 37.9505 66.6399 38.07C67.084 38.1974 67.5212 38.3476 67.9499 38.52L68.2899 38.46ZM68.2899 44.03V40.19L67.9999 39.68C67.4173 39.5545 66.8481 39.3736 66.2999 39.14C65.8946 38.9354 65.4527 38.813 64.9999 38.78V42.78L65.3199 43.16C65.7373 43.3684 66.1767 43.5294 66.6299 43.64C67.0909 43.7539 67.5325 43.9359 67.9399 44.18L68.2899 44.03ZM68.2899 49.66C68.175 48.9077 68.175 48.1423 68.2899 47.39C68.3819 46.6636 68.2819 45.9257 67.9999 45.25C67.4504 45.1357 66.9142 44.9648 66.3999 44.74C65.9611 44.5354 65.4839 44.4264 64.9999 44.42V48.42L65.3199 48.8C65.7335 49.017 66.174 49.1784 66.6299 49.28C67.0761 49.3882 67.5139 49.5286 67.9399 49.7L68.2899 49.66ZM68.2899 55.17C68.1626 54.474 68.139 53.7629 68.2199 53.06C68.3052 52.3513 68.2611 51.633 68.0899 50.94L66.6199 50.43C66.1626 50.2661 65.7151 50.0758 65.2799 49.86L64.9599 50.05V54.05L65.2799 54.43C66.1753 54.6614 67.0513 54.9623 67.8999 55.33L68.2899 55.17ZM68.7999 16.51C69.1667 16.2707 69.573 16.098 69.9999 16C70.3941 15.9366 70.7822 15.8396 71.1599 15.71L71.0899 15.52L68.9999 15.07C68.3206 14.9093 67.6056 15.013 66.9999 15.36C66.8541 15.48 66.6772 15.5563 66.4899 15.58C66.3199 15.58 66.2299 15.68 66.2299 15.81C66.6541 15.8061 67.0728 15.9056 67.4499 16.1C67.8299 16.29 68.2199 16.47 68.5999 16.64L68.7999 16.51ZM72.3799 59.39C72.3399 58.7506 72.3399 58.1094 72.3799 57.47C72.4213 56.8271 72.3776 56.1815 72.2499 55.55H71.9999C71.84 55.6974 71.6363 55.7887 71.4199 55.81C71.2617 55.8171 71.1075 55.8616 70.9699 55.94C70.313 56.0175 69.6919 56.2812 69.1799 56.7C69.2199 56.9987 69.2199 57.3013 69.1799 57.6C69.1391 57.9062 69.1841 58.2178 69.3099 58.5C69.7765 58.7067 70.2465 58.8967 70.7199 59.07C71.1899 59.24 71.6399 59.41 72.0599 59.58L72.3799 59.39ZM72.3799 14.72V10.94L72.0599 10.37C71.6399 10.24 71.1999 10.09 70.7499 9.91999C70.2999 9.74999 69.8899 9.59999 69.4999 9.46999L69.1799 9.59999V13.6L69.4999 13.99C69.9119 14.1956 70.3542 14.334 70.8099 14.4C71.2563 14.468 71.6827 14.6317 72.0599 14.88L72.3799 14.72ZM74.1399 9.05999C74.5586 8.96129 74.9599 8.79944 75.3299 8.57999C74.5442 8.25933 73.7007 8.10447 72.8524 8.12512C72.004 8.14577 71.169 8.34149 70.3999 8.69999C70.7926 8.90969 71.2136 9.06127 71.6499 9.14999C72.0798 9.24961 72.4961 9.4007 72.8899 9.59999C73.269 9.34318 73.693 9.15999 74.1399 9.05999ZM79.5499 7.29999C78.7732 6.95755 77.9337 6.78069 77.0849 6.78069C76.2361 6.78069 75.3966 6.95755 74.6199 7.29999L75.8399 7.77999C76.2199 7.92999 76.6099 8.05999 76.9899 8.18999C77.7599 7.93999 78.6099 7.63999 79.5499 7.29999ZM77.7599 52.54C78.0718 52.3694 78.4096 52.2512 78.7599 52.19C79.0461 52.1542 79.3147 52.0322 79.5299 51.84C79.1596 51.7587 78.7954 51.6517 78.4399 51.52C78.1241 51.3827 77.7699 51.3614 77.4399 51.46C77.48 51.658 77.48 51.862 77.4399 52.06C77.4157 52.1442 77.415 52.2335 77.4379 52.3181C77.4608 52.4028 77.5064 52.4795 77.5699 52.54H77.7599ZM82.4599 6.29999C82.9014 6.24227 83.3157 6.05427 83.6499 5.75999C83.2099 5.71622 82.7787 5.60842 82.3699 5.43999C81.9932 5.28458 81.6055 5.15756 81.2099 5.05999C80.5256 5.45936 79.7598 5.69867 78.9699 5.75999L78.7799 5.99999C79.2249 6.03421 79.6593 6.153 80.0599 6.34999C80.425 6.53312 80.8112 6.67082 81.2099 6.75999C81.5895 6.52041 82.0155 6.36366 82.4599 6.29999ZM82.3699 51C82.8179 50.9361 83.2511 50.7939 83.6499 50.58C83.3358 50.3505 82.9731 50.1965 82.5899 50.13C82.2329 50.0773 81.8917 49.9476 81.5899 49.75C80.5927 49.8195 79.6263 50.1245 78.7699 50.64C79.6248 50.7676 80.4487 51.0524 81.1999 51.48C81.5329 51.2063 81.9406 51.0391 82.3699 51ZM84.8599 21.78C84.7697 21.026 84.7697 20.264 84.8599 19.51C84.9663 18.7812 84.8694 18.0372 84.5799 17.36C84.1276 17.1986 83.6669 17.0617 83.1999 16.95C82.7806 16.834 82.3775 16.666 81.9999 16.45L81.6799 16.64C81.7199 17.3761 81.7199 18.1139 81.6799 18.85C81.6372 19.5195 81.6809 20.1917 81.8099 20.85C82.7689 21.1676 83.7045 21.5519 84.6099 22L84.8599 21.78ZM84.8599 16.15C84.8199 15.5106 84.8199 14.8694 84.8599 14.23C84.8999 13.5895 84.8798 12.9467 84.7999 12.31H84.4799C83.9699 12.52 83.4799 12.71 82.9399 12.88C82.5032 13.0276 82.0758 13.2013 81.6599 13.4V15C81.7842 15.2102 81.9596 15.3857 82.1699 15.51C82.5905 15.5537 83.0019 15.6616 83.3899 15.83C83.7867 16.0056 84.1941 16.1559 84.6099 16.28L84.8599 16.15ZM84.8599 44.05C84.8198 43.3272 84.8198 42.6028 84.8599 41.88C84.8971 41.2128 84.8771 40.5437 84.7999 39.88C84.3307 39.6376 83.8382 39.4433 83.3299 39.3C82.876 39.155 82.4317 38.9813 81.9999 38.78L81.6799 38.91V42.91L81.9999 43.3C82.4504 43.3875 82.8898 43.525 83.3099 43.71C83.7376 43.9019 84.1788 44.0623 84.6299 44.19L84.8599 44.05ZM84.8599 49.68C84.7799 48.9254 84.7799 48.1645 84.8599 47.41C84.9486 46.6912 84.8838 45.9619 84.6699 45.27C84.2365 45.1367 83.7665 44.9767 83.2599 44.79C82.7499 44.6 82.3399 44.46 82.0499 44.37L81.6599 44.44V48.44L81.9799 48.82C82.3949 49.0339 82.8349 49.1951 83.2899 49.3C83.7389 49.4097 84.18 49.55 84.6099 49.72L84.8599 49.68ZM85.4399 5.39999C85.8103 5.14386 86.2412 4.98876 86.6899 4.94999C87.1269 4.90752 87.5395 4.72916 87.8699 4.43999C87.1597 4.3249 86.4694 4.10941 85.8199 3.79999C84.8185 3.90472 83.8434 4.18571 82.9399 4.62999C83.7675 4.82748 84.5796 5.08483 85.3699 5.39999H85.4399ZM86.6499 38.4C87.1199 38.31 87.5699 38.2 87.9999 38.08C87.6333 37.9314 87.2595 37.8012 86.8799 37.69C86.5082 37.5876 86.1517 37.4363 85.8199 37.24L84.3799 37.53C83.8818 37.6234 83.4126 37.8323 83.0099 38.14C83.8591 38.2849 84.6795 38.5651 85.4399 38.97C85.7734 38.6469 86.1939 38.428 86.6499 38.34V38.4ZM90.8499 37C91.2741 36.912 91.6892 36.7848 92.0899 36.62C91.3394 36.1959 90.4919 35.973 89.6299 35.973C88.7678 35.973 87.9204 36.1959 87.1699 36.62C87.5572 36.7929 87.9632 36.9204 88.3799 37C88.7957 37.0844 89.1882 37.2585 89.5299 37.51C89.9448 37.2811 90.3888 37.1095 90.8499 37ZM91.1699 9.06999C91.4399 8.95999 91.7099 8.83999 91.9699 8.70999C91.7093 8.58876 91.4422 8.48193 91.1699 8.38999C90.925 8.32725 90.6943 8.21867 90.4899 8.06999L90.0499 8.19999C90.0898 8.42154 90.0898 8.64844 90.0499 8.86999C90.0217 8.9701 90.0248 9.07644 90.0587 9.17475C90.0927 9.27305 90.1559 9.35863 90.2399 9.41999L91.1699 9.06999Z" fill="#07004D"/>
<path d="M97.89 61.44C97.199 61.312 96.527 61.0969 95.89 60.8C95.77 52.3133 95.74 43.8233 95.8 35.33C95.86 26.8367 95.86 18.3233 95.8 9.79C97.97 9.11 100.15 8.33999 102.32 7.49C103.409 7.06851 104.585 6.91837 105.745 7.05251C106.905 7.18666 108.016 7.60107 108.98 8.26L109.11 8.58C109.11 11.69 109.11 14.83 109.11 17.98C109.11 21.13 109.11 24.32 109.36 27.52C109.872 27.48 110.372 27.3514 110.84 27.14C111.31 26.92 111.84 26.71 112.37 26.5C112.588 24.8428 112.652 23.169 112.56 21.5C112.48 19.84 112.48 18.15 112.56 16.45V4.22C113.63 3.88 114.7 3.52 115.76 3.14C116.82 2.76 117.92 2.35 119.03 1.92C120.133 1.49661 121.319 1.33407 122.495 1.4451C123.671 1.55612 124.806 1.9377 125.81 2.56L126 2.88V53.57L123.54 54.5C122.71 54.82 121.87 55.17 121.01 55.5C119.382 56.2098 117.589 56.4556 115.83 56.21C115.36 56.08 114.83 55.93 114.32 55.76C113.785 55.5847 113.264 55.3708 112.76 55.12L112.56 54.8V36.42L112.05 35.97C111.621 36.0671 111.203 36.2044 110.8 36.38C110.358 36.58 109.9 36.7406 109.43 36.86L109.11 37.31V59.07L108.98 59.39C107.49 59.86 105.98 60.39 104.47 60.96C102.97 61.5323 101.415 61.9511 99.83 62.21H99.76C99.1931 61.8334 98.5577 61.5718 97.89 61.44ZM99.89 38.53C99.7898 37.7766 99.7898 37.0133 99.89 36.26C99.9988 35.5107 99.8984 34.7459 99.6 34.05C99.13 33.92 98.67 33.78 98.23 33.63C97.79 33.48 97.36 33.37 96.98 33.28L96.66 33.34C96.7 34.0861 96.7 34.8339 96.66 35.58C96.6151 36.2661 96.6588 36.9551 96.79 37.63L98.19 38.14C98.66 38.31 99.13 38.51 99.6 38.72L99.89 38.53ZM99.89 49.73C99.7898 48.9766 99.7898 48.2133 99.89 47.46C99.9988 46.7107 99.8984 45.9459 99.6 45.25C99.1358 45.1652 98.678 45.0483 98.23 44.9L97 44.48L96.68 44.61C96.72 45.3228 96.72 46.0372 96.68 46.75C96.6376 47.446 96.6812 48.1447 96.81 48.83L98.21 49.34C98.68 49.52 99.15 49.71 99.62 49.92L99.89 49.73ZM99.89 60.86C99.85 60.1472 99.85 59.4328 99.89 58.72C99.932 58.026 99.9086 57.3296 99.82 56.64C99.3508 56.3976 98.8583 56.2033 98.35 56.06C97.8906 55.9439 97.4396 55.7969 97 55.62L96.68 55.74C96.72 56.4761 96.72 57.2139 96.68 57.95C96.6379 58.6195 96.6816 59.2916 96.81 59.95L98.21 60.56C98.6767 60.7533 99.1467 60.9333 99.62 61.1L99.89 60.86ZM99.89 16.13C99.7897 15.3867 99.7897 14.6333 99.89 13.89C99.9989 13.1505 99.8985 12.3953 99.6 11.71C99.1582 11.5104 98.6998 11.3498 98.23 11.23C97.7981 11.1331 97.3834 10.9712 97 10.75L96.68 11.01V15.01C97.0881 15.3213 97.5537 15.549 98.05 15.68C98.548 15.8122 99.0307 15.9966 99.49 16.23L99.89 16.13ZM99.89 21.7V17.86L99.63 17.34C99.1601 17.2206 98.7017 17.06 98.26 16.86C97.8539 16.6838 97.432 16.5465 97 16.45L96.68 16.58V20.58L97 20.97C97.4547 21.0613 97.8952 21.2126 98.31 21.42C98.7346 21.6195 99.1723 21.7899 99.62 21.93L99.89 21.7ZM99.89 27.46C99.8 26.7027 99.8 25.9373 99.89 25.18C99.9722 24.4446 99.9283 23.7006 99.76 22.98C99.16 22.81 98.6 22.61 98.06 22.4C97.6268 22.2103 97.1624 22.1018 96.69 22.08V26.08L97.01 26.47C97.9001 26.7578 98.7746 27.0916 99.63 27.47L99.89 27.46ZM99.89 32.9V29.06L99.63 28.54L98.21 28L97 27.58L96.68 27.71V31.71C96.7786 31.9413 96.9607 32.1269 97.19 32.23C97.626 32.2614 98.0511 32.3805 98.44 32.58C98.8178 32.7759 99.2128 32.9366 99.62 33.06L99.89 32.9ZM99.89 44.1V40.26L99.63 39.74C99.1601 39.6206 98.7017 39.46 98.26 39.26C97.8539 39.0838 97.432 38.9465 97 38.85L96.68 38.91V42.91L97 43.36C97.4236 43.5306 97.8621 43.6611 98.31 43.75C98.7751 43.8352 99.2197 44.0083 99.62 44.26L99.89 44.1ZM99.89 55.36C99.8001 54.606 99.8001 53.844 99.89 53.09C99.9735 52.3713 99.9295 51.6434 99.76 50.94C99.2922 50.8191 98.8315 50.6722 98.38 50.5C97.94 50.33 97.52 50.18 97.14 50.05L96.69 50.11V54.11L97.01 54.5C97.4387 54.6724 97.8759 54.8226 98.32 54.95C98.7742 55.071 99.2136 55.242 99.63 55.46L99.89 55.36ZM101.65 10.36L102.96 9.93999C102.489 9.85804 102.027 9.73078 101.58 9.56C101.14 9.39 100.72 9.24 100.34 9.10999C100.017 9.2654 99.6828 9.39578 99.34 9.5L97.85 10C98.28 10.13 98.69 10.27 99.07 10.42L100.29 10.9C100.71 10.71 101.15 10.55 101.6 10.4L101.65 10.36ZM105.82 9C106.223 8.91594 106.618 8.79545 107 8.64L106.93 8.45C106.487 8.40257 106.055 8.2844 105.65 8.1C105.287 7.92346 104.899 7.80212 104.5 7.74C104.07 7.98352 103.604 8.15894 103.12 8.26C102.728 8.32387 102.35 8.45228 102 8.64C102.454 8.7325 102.896 8.87331 103.32 9.06C103.747 9.24471 104.185 9.40497 104.63 9.54C104.971 9.25684 105.382 9.07037 105.82 9ZM109.44 30.25C109.711 30.0882 110.015 29.9891 110.33 29.96C110.63 29.9381 110.92 29.8382 111.17 29.67C110.911 29.5445 110.644 29.4376 110.37 29.35C110.09 29.27 109.84 29.18 109.63 29.1L109.25 29.16C109.29 29.3715 109.29 29.5885 109.25 29.8C109.221 29.8781 109.216 29.9636 109.238 30.0443C109.259 30.125 109.306 30.1969 109.37 30.25H109.44ZM114.24 28.62C114.685 28.595 115.109 28.4266 115.45 28.14C114.954 28.0984 114.467 27.9768 114.01 27.78C113.62 27.6034 113.198 27.5081 112.77 27.5C112.382 27.6672 111.97 27.775 111.55 27.82C111.349 27.8227 111.151 27.8764 110.977 27.976C110.802 28.0757 110.655 28.2182 110.55 28.39C110.968 28.4462 111.378 28.5536 111.77 28.71C112.19 28.88 112.6 29.03 112.98 29.16C113.141 28.9844 113.335 28.8426 113.552 28.743C113.768 28.6434 114.002 28.588 114.24 28.58V28.62ZM116.73 27.24C116.606 26.5435 116.586 25.8324 116.67 25.13C116.755 24.4246 116.711 23.7096 116.54 23.02C116.2 22.8933 115.867 22.7733 115.54 22.66C115.249 22.5801 114.97 22.4624 114.71 22.31C114.369 22.2595 114.034 22.1758 113.71 22.06L113.46 22.25C113.54 22.9511 113.54 23.6589 113.46 24.36C113.372 25.0688 113.437 25.7883 113.65 26.47C114.116 26.712 114.61 26.8967 115.12 27.02C115.595 27.1211 116.048 27.3038 116.46 27.56L116.73 27.24ZM116.73 10.6C116.606 9.85978 116.585 9.10581 116.67 8.35999C116.756 7.63137 116.712 6.89321 116.54 6.18C116.042 6.06189 115.551 5.91498 115.07 5.74C114.603 5.57333 114.133 5.42333 113.66 5.29L113.41 5.48V9.27999L113.66 9.66C114.585 9.91208 115.485 10.2468 116.35 10.66L116.73 10.6ZM116.73 16.17V12.17L116.41 11.78C115.993 11.5716 115.553 11.4106 115.1 11.3C114.645 11.1968 114.204 11.0355 113.79 10.82L113.41 10.95V14.95C113.456 15.0653 113.525 15.17 113.612 15.2577C113.7 15.3454 113.805 15.4142 113.92 15.46C114.342 15.5046 114.752 15.6266 115.13 15.82C115.523 16.0125 115.931 16.1731 116.35 16.3L116.73 16.17ZM116.73 21.8C116.605 21.0598 116.585 20.3058 116.67 19.56C116.759 18.8315 116.715 18.0928 116.54 17.38C116.033 17.2991 115.538 17.1511 115.07 16.94C114.622 16.7272 114.148 16.5758 113.66 16.49L113.41 16.68V20.52L113.66 20.9C114.101 21.11 114.564 21.2709 115.04 21.38C115.502 21.4948 115.944 21.6804 116.35 21.93L116.73 21.8ZM116.73 38.63V35L116.41 34.55C115.951 34.8841 115.414 35.0942 114.85 35.16C114.317 35.2034 113.812 35.4173 113.41 35.77V37.37C113.832 37.7546 114.35 38.0173 114.91 38.13C115.439 38.2383 115.946 38.4344 116.41 38.71L116.73 38.63ZM116.73 44.2C116.62 43.4473 116.62 42.6827 116.73 41.93C116.841 41.2003 116.74 40.4542 116.44 39.78C116.02 39.61 115.58 39.45 115.13 39.3L113.82 38.89L113.44 38.95V42.95L113.69 43.4C114.16 43.53 114.62 43.65 115.07 43.75C115.532 43.8648 115.974 44.0504 116.38 44.3L116.73 44.2ZM116.73 49.77C116.62 49.0173 116.62 48.2527 116.73 47.5C116.839 46.7507 116.738 45.9859 116.44 45.29C115.882 45.1974 115.336 45.0466 114.81 44.84C114.377 44.6503 113.912 44.5418 113.44 44.52V48.52C113.547 48.729 113.729 48.8898 113.95 48.97C114.374 49.0555 114.783 49.2073 115.16 49.42C115.548 49.6307 115.957 49.8016 116.38 49.93L116.73 49.77ZM116.73 55.4C116.62 54.6473 116.62 53.8827 116.73 53.13C116.841 52.4003 116.74 51.6542 116.44 50.98C116.023 50.7716 115.583 50.6106 115.13 50.5C114.683 50.3983 114.245 50.2612 113.82 50.09L113.44 50.15V54.15C113.539 54.3813 113.721 54.5669 113.95 54.67C114.333 54.7198 114.709 54.8137 115.07 54.95C115.47 55.1 115.91 55.28 116.38 55.5L116.73 55.4ZM118.49 4.81C118.94 4.66 119.34 4.54 119.68 4.46C118.908 4.05937 118.05 3.85025 117.18 3.85025C116.31 3.85025 115.452 4.05937 114.68 4.46C115.06 4.55464 115.434 4.67151 115.8 4.81C116.2 4.96 116.64 5.14 117.11 5.35C117.59 5.1 118.05 4.92 118.49 4.77V4.81ZM122.56 3.43C123.021 3.33581 123.47 3.19162 123.9 3C123.517 2.79993 123.111 2.64875 122.69 2.55C122.312 2.47175 121.945 2.34398 121.6 2.17C121.105 2.24741 120.621 2.3851 120.16 2.58C119.737 2.7607 119.299 2.90131 118.85 3C119.263 3.16909 119.692 3.2964 120.13 3.38C120.561 3.4735 120.972 3.64644 121.34 3.89C121.705 3.63492 122.121 3.46413 122.56 3.39V3.43Z" fill="#07004D"/>
<path d="M140.05 57.92C138.628 57.5143 137.233 57.0234 135.87 56.45C135.783 48.9367 135.803 41.4467 135.93 33.98C136.057 26.5133 135.93 19.0267 135.55 11.52C134.286 11.0003 132.994 10.5529 131.68 10.18C130.321 9.78625 128.986 9.31549 127.68 8.77001L127.49 8.45001V2.56001C128.754 1.76591 130.203 1.31345 131.695 1.24684C133.186 1.18024 134.67 1.50177 136 2.18001C139.56 3.46001 143.117 4.66334 146.67 5.79001C150.223 6.91667 153.81 8.14334 157.43 9.47001L157.62 9.79001V15.55L157.43 15.81C156.187 16.4753 154.81 16.8497 153.402 16.9051C151.993 16.9606 150.591 16.6955 149.3 16.13C149.093 23.0367 149.03 29.9367 149.11 36.83C149.19 43.7233 149.19 50.6467 149.11 57.6L148.86 57.92C148.14 58.22 147.4 58.51 146.64 58.78C145.878 59.058 145.091 59.2622 144.29 59.39H144.1C142.788 58.8022 141.434 58.3109 140.05 57.92ZM131.65 8.92001C131.523 8.20036 131.5 7.46631 131.58 6.74001C131.665 6.03462 131.621 5.31958 131.45 4.63001C130.94 4.46001 130.45 4.28001 129.98 4.08001L128.64 3.54001L128.32 3.73001C128.36 4.46613 128.36 5.20388 128.32 5.94001C128.275 6.60705 128.295 7.27684 128.38 7.94001C128.851 8.17509 129.343 8.36591 129.85 8.51001C130.341 8.64701 130.815 8.8417 131.26 9.09001L131.65 8.92001ZM133.25 3.25001C133.723 3.22494 134.184 3.08416 134.59 2.84001C134.202 2.63526 133.793 2.47427 133.37 2.36001L132.22 2.00001C131.305 2.16061 130.421 2.46433 129.6 2.90001C129.983 2.95301 130.359 3.05033 130.72 3.19001C131.12 3.34001 131.56 3.52001 132.03 3.73001C132.365 3.42456 132.797 3.24744 133.25 3.23001V3.25001ZM135.74 10.25C135.65 9.51608 135.65 8.77394 135.74 8.04001C135.846 7.29156 135.749 6.52842 135.46 5.83001C134.981 5.78586 134.514 5.6572 134.08 5.45001C133.69 5.25865 133.281 5.10786 132.86 5.00001L132.54 5.13001V9.13001L132.86 9.58001C133.312 9.62715 133.754 9.74527 134.17 9.93001L135.49 10.48L135.74 10.25ZM137.37 4.62001C137.751 4.54126 138.125 4.4343 138.49 4.30001L138.75 4.11001C137.926 3.84819 137.079 3.66406 136.22 3.56001C135.801 3.5049 135.375 3.54263 134.973 3.67051C134.57 3.7984 134.2 4.01331 133.89 4.30001C134.303 4.37876 134.708 4.49594 135.1 4.65001L136.32 5.13001C136.618 4.86698 136.98 4.68757 137.37 4.61001V4.62001ZM140.09 34.19C140.002 33.4635 139.972 32.7312 140 32C140.04 31.3062 140.02 30.6103 139.94 29.92C139.498 29.6725 139.023 29.4874 138.53 29.37C138.043 29.2643 137.57 29.1033 137.12 28.89L136.74 29.02C136.78 29.7561 136.78 30.4939 136.74 31.23C136.695 31.8991 136.735 32.5711 136.86 33.23C137.305 33.4704 137.779 33.6519 138.27 33.77C138.771 33.8918 139.248 34.0981 139.68 34.38L140.09 34.19ZM140.09 11.72C139.975 10.9677 139.975 10.2023 140.09 9.45001C140.198 8.70069 140.098 7.93604 139.8 7.24001C139.237 7.15709 138.688 6.99552 138.17 6.76001C137.741 6.55342 137.275 6.43443 136.8 6.41001V10.51L137.05 10.89C137.495 11.0912 137.956 11.2519 138.43 11.37C138.89 11.4857 139.332 11.6676 139.74 11.91L140.09 11.72ZM140.09 17.35C139.975 16.5977 139.975 15.8323 140.09 15.08C140.197 14.3307 140.097 13.5663 139.8 12.87C139.365 12.6991 138.917 12.562 138.46 12.46C138.013 12.3594 137.583 12.1979 137.18 11.98L136.8 12.11V16.11C136.967 16.41 137.137 16.58 137.31 16.62C137.693 16.673 138.069 16.7703 138.43 16.91C138.83 17.06 139.27 17.24 139.74 17.45L140.09 17.35ZM140.09 23.05C139.965 22.2997 139.945 21.5358 140.03 20.78C140.112 20.0413 140.068 19.294 139.9 18.57C139.3 18.4 138.76 18.23 138.27 18.06C137.843 17.9166 137.425 17.7462 137.02 17.55L136.77 17.87V21.7L137.02 22.14C137.472 22.3046 137.933 22.4448 138.4 22.56C138.86 22.6757 139.302 22.8576 139.71 23.1L140.09 23.05ZM140.09 28.49C139.966 27.7834 139.945 27.0624 140.03 26.35C140.112 25.6545 140.068 24.9498 139.9 24.27C139.434 24.028 138.94 23.8433 138.43 23.72C137.943 23.6143 137.47 23.4533 137.02 23.24L136.77 23.43V27.43C137.169 27.8632 137.714 28.1338 138.3 28.19C138.836 28.2359 139.347 28.4375 139.77 28.77L140.09 28.49ZM140.09 39.75C139.966 39.0333 139.946 38.3025 140.03 37.58C140.11 36.8745 140.066 36.1603 139.9 35.47C139.437 35.2281 138.942 35.053 138.43 34.95C137.935 34.861 137.458 34.6885 137.02 34.44L136.77 34.63V38.73C137.19 39.1139 137.71 39.3705 138.27 39.47C138.8 39.5519 139.309 39.7352 139.77 40.01L140.09 39.75ZM140.09 45.51C139.975 44.7577 139.975 43.9923 140.09 43.24C140.197 42.4907 140.097 41.7263 139.8 41.03C139.364 40.8535 138.916 40.7065 138.46 40.59C138.023 40.4721 137.595 40.3217 137.18 40.14L136.8 40.27V44.27C136.901 44.4975 137.082 44.6794 137.31 44.78C138.153 44.917 138.972 45.1764 139.74 45.55L140.09 45.51ZM140.09 50.95C139.955 50.2417 139.924 49.5172 140 48.8C140.082 48.1045 140.038 47.3999 139.87 46.72C139.409 46.4767 138.913 46.3047 138.4 46.21C137.91 46.1109 137.439 45.939 137 45.7L136.75 45.89V49.89C137.174 50.2738 137.691 50.5393 138.25 50.66C138.777 50.7697 139.283 50.962 139.75 51.23L140.09 50.95ZM140.09 56.71C139.975 55.9577 139.975 55.1923 140.09 54.44C140.201 53.7136 140.1 52.9708 139.8 52.3C139.373 52.0828 138.924 51.9119 138.46 51.79C137.99 51.66 137.56 51.53 137.18 51.4L136.8 51.47V55.47L137.05 55.85C137.502 56.0146 137.963 56.1548 138.43 56.27C138.89 56.3857 139.332 56.5676 139.74 56.81L140.09 56.71ZM141.69 6.00001C142.105 5.89767 142.498 5.72153 142.85 5.48001C140.85 4.81334 139.25 4.85667 138.05 5.61001C138.39 5.70001 138.76 5.81001 139.17 5.96001C139.594 6.11766 140.008 6.30134 140.41 6.51001C140.812 6.28387 141.243 6.11236 141.69 6.00001ZM144.25 35.5V31.74L143.87 31.1L143.68 31.04C143.239 31.0049 142.806 30.8968 142.4 30.72L141.25 30.21L140.93 30.4C140.97 31.1361 140.97 31.8739 140.93 32.61C140.884 33.2791 140.925 33.9512 141.05 34.61C141.512 34.8452 141.994 35.0393 142.49 35.19C142.97 35.331 143.433 35.5256 143.87 35.77L144.25 35.5ZM144.25 58.03C144.17 57.3055 144.17 56.5745 144.25 55.85C144.334 55.1411 144.269 54.4225 144.06 53.74L142.59 53.23C142.131 53.0671 141.683 52.8733 141.25 52.65L140.93 52.84C140.97 53.5761 140.97 54.3139 140.93 55.05C140.885 55.7191 140.925 56.3912 141.05 57.05C141.512 57.2823 141.994 57.473 142.49 57.62C142.97 57.761 143.433 57.9556 143.87 58.2L144.25 58.03ZM144.25 13.1C144.155 12.3463 144.155 11.5837 144.25 10.83C144.362 10.0908 144.276 9.33497 144 8.64001C143.44 8.55956 142.892 8.40835 142.37 8.19001C141.914 7.9963 141.425 7.88785 140.93 7.87001V11.87L141.25 12.26C141.667 12.4684 142.107 12.6294 142.56 12.74C143.02 12.8557 143.462 13.0376 143.87 13.28L144.25 13.1ZM144.25 18.73C144.155 17.9964 144.155 17.2536 144.25 16.52C144.35 15.751 144.25 14.9692 143.96 14.25C143.484 14.207 143.019 14.0888 142.58 13.9L141.33 13.36L140.89 13.48V17.48L141.21 17.92C141.634 18.0906 142.072 18.2211 142.52 18.31C142.985 18.3968 143.429 18.5698 143.83 18.82L144.25 18.73ZM144.25 24.3V20.48C144.156 20.3117 144.049 20.1511 143.93 20C143.873 19.9215 143.809 19.8479 143.74 19.78C143.239 19.7723 142.746 19.6491 142.3 19.42C141.874 19.2048 141.407 19.0854 140.93 19.07V23.07L141.25 23.52C141.679 23.6924 142.116 23.8426 142.56 23.97C143.02 24.1044 143.461 24.2995 143.87 24.55L144.25 24.3ZM144.25 30V26C144.125 25.7903 143.95 25.615 143.74 25.49C143.314 25.3951 142.896 25.268 142.49 25.11L141.37 24.66L140.93 24.79V28.79L141.25 29.17C141.661 29.3863 142.103 29.538 142.56 29.62C143.022 29.7159 143.465 29.8883 143.87 30.13L144.25 30ZM144.25 41.2C144.155 40.4664 144.155 39.7236 144.25 38.99C144.362 38.2508 144.276 37.495 144 36.8C143.456 36.7193 142.926 36.5575 142.43 36.32C141.962 36.0934 141.45 35.9738 140.93 35.97V39.97L141.25 40.42C141.665 40.6276 142.105 40.779 142.56 40.87C143.015 40.9546 143.456 41.1027 143.87 41.31L144.25 41.2ZM144.25 46.76C144.17 46.0489 144.17 45.3311 144.25 44.62C144.337 43.9211 144.272 43.2116 144.06 42.54C143.55 42.33 143.06 42.13 142.59 41.96C142.133 41.7961 141.685 41.6058 141.25 41.39L140.93 41.64V45.64L141.25 46.08C142.165 46.243 143.048 46.5466 143.87 46.98L144.25 46.76ZM144.25 52.33C144.17 51.629 144.17 50.9211 144.25 50.22C144.334 49.5111 144.27 48.7924 144.06 48.11C143.599 47.8667 143.103 47.6947 142.59 47.6C142.115 47.5105 141.661 47.3342 141.25 47.08L140.93 47.28V51.37C141.387 51.7077 141.907 51.9492 142.46 52.08C142.997 52.1973 143.516 52.3892 144 52.65L144.25 52.33ZM144.7 7.85001C145.118 7.60465 145.574 7.43218 146.05 7.34001C146.462 7.27554 146.854 7.12196 147.2 6.89001C145.113 6.07667 143.427 6.12001 142.14 7.02001C142.87 7.23001 143.68 7.51001 144.57 7.85001H144.7ZM148.22 14.7C148.428 14.007 148.506 13.2814 148.45 12.56C148.395 11.8678 148.395 11.1723 148.45 10.48L148.2 10.09C147.758 9.88911 147.295 9.73818 146.82 9.64001C146.355 9.55319 145.911 9.38021 145.51 9.13001L145.19 9.32001C145.265 10.0648 145.265 10.8152 145.19 11.56C145.126 12.2446 145.16 12.9349 145.29 13.61C145.8 13.83 146.29 14.01 146.76 14.16C147.24 14.3137 147.71 14.494 148.17 14.7H148.22ZM148.93 9.26001C149.312 8.99995 149.751 8.83534 150.21 8.78001C150.643 8.73419 151.048 8.54398 151.36 8.24001C150.637 8.18288 149.937 7.96416 149.31 7.60001C148.311 7.71577 147.338 7.99623 146.43 8.43001L147.65 8.81001C148.03 8.94001 148.41 9.09001 148.8 9.26001H148.93ZM152.7 15.92C152.58 15.1782 152.58 14.4218 152.7 13.68C152.813 12.9406 152.712 12.1843 152.41 11.5C151.438 11.0587 150.402 10.7784 149.34 10.67V14.67C149.441 14.8975 149.622 15.0794 149.85 15.18C150.269 15.2675 150.678 15.3982 151.07 15.57C151.462 15.745 151.867 15.892 152.28 16.01L152.7 15.92ZM154.3 10.22C154.724 10.1214 155.134 9.97027 155.52 9.77001C155.099 9.57707 154.66 9.42633 154.21 9.32001C153.798 9.25049 153.393 9.14338 153 9.00001C152.603 9.21429 152.184 9.38527 151.75 9.51001C151.386 9.60851 151.031 9.73902 150.69 9.90001C151.126 9.96984 151.548 10.1082 151.94 10.31C152.315 10.5048 152.716 10.6462 153.13 10.73C153.5 10.5232 153.893 10.3588 154.3 10.24V10.22Z" fill="#07004D"/>
<path d="M163.52 59.26C163.47 58.8047 163.47 58.3453 163.52 57.89C163.551 57.3961 163.461 56.902 163.26 56.45C162.648 56.1609 162.003 55.946 161.34 55.81C160.661 55.663 160.012 55.4027 159.42 55.04C159.293 48.4733 159.26 41.9233 159.32 35.39C159.38 28.8567 159.38 22.2433 159.32 15.55C160.402 14.9054 161.596 14.4712 162.84 14.27L163.22 14.08L163.48 13.7V8.69999L163.73 8.37999C167.423 7.70722 170.987 6.45512 174.29 4.66999C175.911 3.74856 177.728 3.22706 179.59 3.14879C181.453 3.07053 183.308 3.43776 185 4.21999C185.091 4.62008 185.111 5.03293 185.06 5.43999C185.017 5.84777 185.041 6.25979 185.13 6.65999L185.38 7.03999C185.988 7.33959 186.62 7.58714 187.27 7.77999C187.948 7.9671 188.616 8.19076 189.27 8.44999C189.443 10.4451 189.486 12.4493 189.4 14.45C189.319 16.4508 189.362 18.4546 189.53 20.45C189.4 25.22 189.38 29.9 189.47 34.45C189.56 39 189.47 43.6 189.15 48.21C188.337 48.47 187.097 48.92 185.43 49.56L185.18 49.94V54.94C185.109 54.9337 185.039 54.9484 184.976 54.9822C184.914 55.016 184.863 55.0674 184.83 55.13C184.748 55.2729 184.621 55.3852 184.47 55.45C181.74 56.18 179 57.05 176.25 58.08C173.5 59.11 170.73 60 168 60.67L167.55 60.8C166.05 60.16 164.71 59.65 163.52 59.26ZM163.45 21.7C163.321 21.0007 163.3 20.2855 163.39 19.58C163.47 18.8745 163.426 18.1604 163.26 17.47C162.798 17.2347 162.302 17.0728 161.79 16.99C161.311 16.9268 160.851 16.7632 160.44 16.51L160.12 16.7V20.7C160.563 21.0453 161.08 21.2847 161.63 21.4C162.178 21.519 162.706 21.7143 163.2 21.98L163.45 21.7ZM163.45 27.46C163.33 26.7047 163.33 25.9353 163.45 25.18C163.557 24.4439 163.47 23.6928 163.2 23C162.743 22.7949 162.272 22.6245 161.79 22.49C161.32 22.36 160.91 22.23 160.57 22.1L160.12 22.17V26.17C160.223 26.3993 160.409 26.5814 160.64 26.68C161.492 26.7798 162.316 27.0411 163.07 27.45L163.45 27.46ZM163.45 32.83C163.321 32.1238 163.301 31.4022 163.39 30.69C163.468 30.021 163.424 29.3432 163.26 28.69C162.784 28.4909 162.292 28.3304 161.79 28.21C161.314 28.1027 160.858 27.9204 160.44 27.67L160.12 27.86V31.86C160.549 32.2419 161.069 32.507 161.63 32.63C162.177 32.7459 162.706 32.9377 163.2 33.2L163.45 32.83ZM163.45 38.34V34.56L163.2 34.18C162.745 33.9673 162.274 33.7934 161.79 33.66C161.369 33.5567 160.96 33.4093 160.57 33.22L160.12 33.34V37.34C160.34 37.63 160.51 37.81 160.64 37.85C161.483 37.9871 162.302 38.2465 163.07 38.62L163.45 38.34ZM163.45 44.1C163.33 43.3582 163.33 42.6018 163.45 41.86C163.556 41.1263 163.481 40.3777 163.23 39.68C162.646 39.6048 162.075 39.4535 161.53 39.23C161.094 39.0391 160.626 38.9306 160.15 38.91V42.91C160.253 43.1393 160.439 43.3214 160.67 43.42C161.089 43.5086 161.496 43.6497 161.88 43.84C162.273 44.0325 162.681 44.1931 163.1 44.32L163.45 44.1ZM163.45 49.73C163.33 48.9781 163.33 48.2119 163.45 47.46C163.559 46.7362 163.483 45.9966 163.23 45.31C162.779 45.1061 162.306 44.955 161.82 44.86C161.389 44.7932 160.975 44.6438 160.6 44.42L160.15 44.48V48.48C160.32 48.78 160.5 48.93 160.67 48.93C161.516 49.1203 162.334 49.423 163.1 49.83L163.45 49.73ZM163.45 55.36C163.32 54.6102 163.3 53.8456 163.39 53.09C163.473 52.3713 163.429 51.6434 163.26 50.94C162.784 50.7409 162.292 50.5804 161.79 50.46C161.313 50.3572 160.856 50.1746 160.44 49.92L160.12 50.18V54.08L160.44 54.4C160.861 54.6069 161.304 54.7678 161.76 54.88C162.22 54.9969 162.661 55.1787 163.07 55.42L163.45 55.36ZM165.05 16.19C165.492 16.1225 165.911 15.9474 166.27 15.68C165.856 15.5231 165.432 15.3961 165 15.3C164.584 15.2066 164.184 15.0551 163.81 14.85C163.398 15.056 162.97 15.2266 162.53 15.36C162.177 15.4624 161.841 15.6139 161.53 15.81C161.901 15.902 162.265 16.019 162.62 16.16C163 16.31 163.43 16.49 163.9 16.7C164.242 16.449 164.634 16.275 165.05 16.19ZM167.68 14.78C167.553 14.0738 167.53 13.353 167.61 12.64C167.694 11.941 167.629 11.2322 167.42 10.56L166 10.05C165.541 9.88705 165.093 9.69328 164.66 9.46999L164.34 9.65999V13.66C164.444 13.8849 164.625 14.0655 164.85 14.17C165.271 14.2103 165.683 14.3183 166.07 14.49C166.45 14.66 166.83 14.81 167.22 14.94L167.68 14.78ZM167.68 59.33C167.592 58.7141 167.569 58.0907 167.61 57.47C167.649 56.8528 167.629 56.2333 167.55 55.62C166.953 55.6252 166.364 55.7546 165.82 56C165.307 56.2105 164.815 56.4683 164.35 56.77V58.37C164.79 58.7151 165.303 58.9546 165.85 59.07C166.381 59.1801 166.891 59.376 167.36 59.65L167.68 59.33ZM169.24 9.17999C169.686 9.15984 170.118 9.01806 170.49 8.76999C169.769 8.30788 168.926 8.07318 168.07 8.09636C167.214 8.11955 166.385 8.39954 165.69 8.89999C166.519 9.00844 167.322 9.26591 168.06 9.65999C168.39 9.37565 168.805 9.2071 169.24 9.17999ZM173.53 7.80999C173.959 7.72863 174.365 7.55458 174.72 7.29999L173.44 6.93999C173.039 6.84747 172.65 6.70993 172.28 6.52999C171.94 6.77999 171.67 6.84999 171.45 6.71999C170.972 7.09197 170.394 7.31459 169.79 7.35999C170.193 7.5623 170.611 7.73282 171.04 7.86999L172.28 8.25999C172.675 8.05506 173.095 7.90372 173.53 7.80999ZM173 52.61C173.288 52.454 173.604 52.3555 173.93 52.32C174.234 52.2875 174.528 52.1885 174.79 52.03L174.73 51.84C174.355 51.8443 173.984 51.7693 173.64 51.62C173.33 51.4659 172.974 51.4303 172.64 51.52C172.68 51.7213 172.68 51.9286 172.64 52.13C172.617 52.2143 172.617 52.3033 172.64 52.3877C172.662 52.4721 172.707 52.5489 172.77 52.61H173ZM173 49.86C173.457 49.6216 173.94 49.4371 174.44 49.31C174.913 49.2009 175.372 49.0399 175.81 48.83C175.977 42.9033 176.043 37.0467 176.01 31.26C175.977 25.4733 175.953 19.64 175.94 13.76L175.69 13.7C175.263 13.9828 174.783 14.1767 174.28 14.27C173.8 14.3626 173.329 14.493 172.87 14.66C172.737 20.5933 172.673 26.48 172.68 32.32C172.687 38.16 172.73 44.0067 172.81 49.86H173ZM177.64 6.45999C178.079 6.38467 178.488 6.18712 178.82 5.88999C178.364 5.89084 177.914 5.78103 177.51 5.56999C177.162 5.37557 176.783 5.24357 176.39 5.17999C176.101 5.22257 175.821 5.31031 175.56 5.43999C175.322 5.56387 175.058 5.62902 174.79 5.62999C174.658 5.73773 174.505 5.81614 174.34 5.85999C174.22 5.88921 174.106 5.93642 174 5.99999L175.09 6.41999L176.37 6.89999C176.772 6.70606 177.195 6.55845 177.63 6.45999H177.64ZM177.64 50.98C178.056 50.8832 178.454 50.7212 178.82 50.5C178.064 50.1529 177.238 49.9832 176.406 50.004C175.574 50.0248 174.758 50.2355 174.02 50.62C174.36 50.71 174.74 50.83 175.14 50.98C175.566 51.1382 175.983 51.3185 176.39 51.52C176.767 51.2697 177.187 51.0932 177.63 51L177.64 50.98ZM180.23 16.19V12.8L179.91 12.29C179.409 12.5227 178.895 12.7264 178.37 12.9C177.866 13.0638 177.375 13.2644 176.9 13.5C176.94 13.7987 176.94 14.1013 176.9 14.4C176.859 14.7062 176.904 15.0178 177.03 15.3C177.489 15.5311 177.972 15.7121 178.47 15.84C178.95 15.9623 179.414 16.1437 179.85 16.38L180.23 16.19ZM180.23 43.97V40.19L179.91 39.81C179.47 39.5966 179.007 39.4355 178.53 39.33C178.063 39.23 177.618 39.0434 177.22 38.78L176.9 38.98C176.94 39.7128 176.94 40.4472 176.9 41.18C176.858 41.8495 176.902 42.5216 177.03 43.18C177.485 43.4197 177.969 43.6012 178.47 43.72C178.952 43.8411 179.416 44.0261 179.85 44.27L180.23 43.97ZM180.23 21.7C180.101 21.0007 180.08 20.2855 180.17 19.58C180.25 18.8745 180.206 18.1604 180.04 17.47C179.578 17.2347 179.082 17.0728 178.57 16.99C178.091 16.9268 177.631 16.7632 177.22 16.51L176.9 16.7V20.7C177.343 21.0453 177.86 21.2847 178.41 21.4C178.938 21.5111 179.445 21.707 179.91 21.98L180.23 21.7ZM180.23 27.33C180.101 26.6205 180.081 25.8956 180.17 25.18C180.235 24.4821 180.178 23.7781 180 23.1L178.53 22.59C178.07 22.4243 177.619 22.234 177.18 22.02L176.86 22.21V26.21C176.961 26.4375 177.142 26.6194 177.37 26.72C177.791 26.759 178.204 26.8672 178.59 27.04C178.987 27.2156 179.394 27.3659 179.81 27.49L180.23 27.33ZM180.23 32.96C180.11 32.2081 180.11 31.4419 180.23 30.69C180.333 29.9603 180.233 29.2163 179.94 28.54C179.377 28.4571 178.828 28.2955 178.31 28.06C177.878 27.8534 177.409 27.7344 176.93 27.71V31.71L177.25 32.1C177.669 32.3053 178.108 32.4662 178.56 32.58C179.025 32.6912 179.47 32.8733 179.88 33.12L180.23 32.96ZM180.23 38.46C180.101 37.764 180.08 37.0522 180.17 36.35C180.25 35.6445 180.206 34.9304 180.04 34.24C179.533 34.0667 179.043 33.8867 178.57 33.7C178.131 33.5108 177.68 33.3505 177.22 33.22L176.9 33.34V37.34C177.027 37.5477 177.202 37.7225 177.41 37.85C178.256 37.9891 179.077 38.2484 179.85 38.62L180.23 38.46ZM180.23 49.73C180.11 48.9781 180.11 48.2119 180.23 47.46C180.333 46.7303 180.233 45.9863 179.94 45.31C179.412 45.1884 178.896 45.0176 178.4 44.8C177.938 44.5901 177.437 44.481 176.93 44.48V48.48L177.25 48.87C177.664 49.0759 178.105 49.2239 178.56 49.31C179.027 49.4049 179.474 49.5809 179.88 49.83L180.23 49.73ZM181.85 4.99999C182.3 4.80999 182.74 4.64999 183.16 4.51999C182.692 4.43795 182.233 4.31069 181.79 4.13999L180.54 3.68999C180.132 3.9027 179.703 4.07357 179.26 4.19999C178.83 4.32999 178.45 4.43999 178.11 4.51999C178.53 4.68999 178.94 4.85999 179.32 4.99999C179.7 5.13999 180.11 5.28999 180.54 5.41999C180.99 5.32739 181.43 5.18658 181.85 4.99999ZM187.26 8.87999C187.045 8.65836 186.765 8.51121 186.46 8.45999C186.178 8.41303 185.907 8.31474 185.66 8.16999L185.21 8.23999C185.294 8.4657 185.294 8.71428 185.21 8.93999C185.15 9.19999 185.21 9.36999 185.37 9.44999C185.978 9.19856 186.612 9.01414 187.26 8.89999V8.87999Z" fill="#07004D"/>
<path d="M192.92 61.41L190.84 60.67V8.67C191.95 8.33 193.06 7.98 194.17 7.61C195.28 7.24 196.39 6.84 197.5 6.37C198.599 5.92864 199.792 5.77327 200.967 5.91843C202.142 6.06359 203.262 6.50453 204.22 7.2L204.41 7.52V15.3C204.464 15.4568 204.551 15.6003 204.665 15.721C204.779 15.8417 204.917 15.9368 205.07 16C205.666 16.097 206.249 16.258 206.81 16.48C207.4 16.71 208 16.94 208.61 17.15L208.81 17.47V19.71L209.13 20.16C209.67 20.2151 210.195 20.3676 210.68 20.61C211.206 20.8559 211.772 21.0081 212.35 21.06C212.39 18.7133 212.39 16.38 212.35 14.06C212.31 11.74 212.31 9.35 212.35 6.89V1.6L214.89 0.6C215.742 0.257776 216.644 0.0551754 217.56 0C218.107 0.358575 218.724 0.597149 219.37 0.7C220.108 0.844107 220.824 1.08274 221.5 1.41L221.63 1.73V53.38C221.12 53.63 220.63 53.89 220.01 54.14C219.455 54.3918 218.88 54.5959 218.29 54.75C217.72 54.9036 217.13 54.9677 216.54 54.94C215.932 54.9143 215.342 54.728 214.83 54.4C214.45 54.27 214.07 54.17 213.71 54.08C213.296 53.9718 212.901 53.7997 212.54 53.57L212.35 53.25C212.29 50.94 212.29 48.63 212.35 46.25C212.401 43.9138 212.318 41.5766 212.1 39.25C211.482 38.9572 210.835 38.7293 210.17 38.57C209.466 38.4081 208.791 38.1383 208.17 37.77C208.035 37.4128 208 37.0255 208.07 36.65C208.12 36.2382 208.12 35.8218 208.07 35.41C207.939 35.1103 207.715 34.8611 207.43 34.7C206.509 34.4845 205.604 34.2072 204.72 33.87L204.52 34C204.388 34.413 204.344 34.8489 204.39 35.28C204.44 35.7487 204.44 36.2213 204.39 36.69V59L204.2 59.32C202.75 59.79 201.28 60.32 199.78 60.82C198.28 61.32 196.78 61.82 195.37 62.2H194.92C194.26 61.91 193.58 61.64 192.92 61.41ZM195.13 20.8V16.9C194.83 16.51 194.62 16.3 194.49 16.26H194.11C193.72 16.09 193.36 15.94 193.02 15.81L192.02 15.42L191.7 15.62C191.74 16.3761 191.74 17.1339 191.7 17.89C191.657 18.5595 191.701 19.2317 191.83 19.89C192.279 20.1392 192.751 20.3435 193.24 20.5C193.71 20.65 194.24 20.83 194.71 21.05L195.13 20.8ZM195.13 32.26C195.001 31.5506 194.98 30.8255 195.07 30.11C195.151 29.3945 195.107 28.6704 194.94 27.97C194.39 27.75 193.87 27.56 193.4 27.39C192.943 27.2243 192.496 27.034 192.06 26.82L191.74 27.01C191.78 27.7661 191.78 28.5239 191.74 29.28C191.698 29.976 191.742 30.6746 191.87 31.36C192.311 31.6088 192.786 31.7908 193.28 31.9C193.791 32.0233 194.284 32.208 194.75 32.45L195.13 32.26ZM195.13 15.26C195.01 14.498 195.01 13.722 195.13 12.96C195.24 12.2009 195.14 11.426 194.84 10.72C194.37 10.59 193.91 10.44 193.47 10.27L192.15 9.76L191.77 9.89V14L192.09 14.45C192.513 14.6205 192.952 14.7478 193.4 14.83C193.884 14.9311 194.35 15.1065 194.78 15.35L195.13 15.26ZM195.13 26.65V22.46C194.976 22.2958 194.805 22.1483 194.62 22.02C194.162 21.9202 193.713 21.7796 193.28 21.6C192.81 21.41 192.42 21.27 192.12 21.18L191.74 21.25V25.34L192.06 25.79C192.471 26 192.914 26.1419 193.37 26.21C193.856 26.2823 194.324 26.4451 194.75 26.69L195.13 26.65ZM195.13 38.05C195.01 37.2947 195.01 36.5253 195.13 35.77C195.235 35.001 195.135 34.218 194.84 33.5C194.289 33.4207 193.751 33.2695 193.24 33.05C192.776 32.8482 192.276 32.7395 191.77 32.73V36.83L192.09 37.21C192.504 37.4255 192.945 37.5868 193.4 37.69C193.874 37.8082 194.335 37.9688 194.78 38.17L195.13 38.05ZM195.13 43.68C195.001 42.9706 194.98 42.2455 195.07 41.53C195.151 40.8145 195.107 40.0905 194.94 39.39C194.39 39.22 193.87 39.05 193.4 38.88C192.935 38.7074 192.487 38.4932 192.06 38.24L191.74 38.43V42.59L192.06 42.97C192.98 43.2367 193.879 43.5709 194.75 43.97L195.13 43.68ZM195.13 49.37C195.001 48.6538 194.981 47.9222 195.07 47.2C195.149 46.4712 195.105 45.7343 194.94 45.02C194.441 44.8256 193.925 44.6751 193.4 44.57C192.916 44.4828 192.458 44.288 192.06 44L191.74 44.25V48.35C192.167 48.73 192.683 48.995 193.24 49.12C193.787 49.2384 194.315 49.4302 194.81 49.69L195.13 49.37ZM195.13 55.13C195.001 54.4138 194.981 53.6822 195.07 52.96C195.151 52.2545 195.107 51.5403 194.94 50.85C194.39 50.63 193.87 50.44 193.4 50.27C192.942 50.1052 192.494 49.9115 192.06 49.69L191.74 49.89V54C191.907 54.3 192.077 54.47 192.25 54.51C193.128 54.6332 193.976 54.918 194.75 55.35L195.13 55.13ZM195.13 60.89V56.77C194.987 56.5751 194.815 56.4031 194.62 56.26C194.079 56.2181 193.548 56.0863 193.05 55.87C192.639 55.6774 192.194 55.5687 191.74 55.55V59.55L192.06 60C192.477 60.2163 192.916 60.3873 193.37 60.51C193.843 60.6469 194.304 60.8208 194.75 61.03L195.13 60.89ZM196.8 9.34C197.216 9.24266 197.619 9.0949 198 8.9C197.256 8.43674 196.393 8.20126 195.517 8.22259C194.641 8.24391 193.79 8.5211 193.07 9.02C193.502 9.11001 193.922 9.251 194.32 9.44C194.701 9.62096 195.1 9.76173 195.51 9.86C195.914 9.62741 196.348 9.45239 196.8 9.34ZM201.15 7.94C201.57 7.77 202 7.62 202.43 7.49C201.99 7.3285 201.539 7.19818 201.08 7.1C200.656 7.01814 200.248 6.86963 199.87 6.66L198.52 7.14C198.124 7.27895 197.72 7.3958 197.31 7.49C197.722 7.69596 198.15 7.86657 198.59 8L199.87 8.38C200.29 8.26 200.72 8.11 201.15 7.94ZM204.92 18.18C205.197 18.0165 205.502 17.9078 205.82 17.86C205.957 17.8468 206.09 17.8053 206.211 17.7382C206.331 17.6711 206.437 17.5798 206.52 17.47C205.902 17.2335 205.257 17.0756 204.6 17C204.66 17.2091 204.66 17.4309 204.6 17.64C204.566 17.7273 204.558 17.8224 204.576 17.9143C204.593 18.0063 204.636 18.0914 204.7 18.16L204.92 18.18ZM208 33.73V30L207.8 29.68C206.858 30.0321 205.896 30.3293 204.92 30.57L204.6 31.02V32.43L204.92 32.88C205.342 33.0869 205.784 33.2478 206.24 33.36C206.703 33.4687 207.145 33.651 207.55 33.9L208 33.73ZM209.08 22.46L210.08 22.11C210.368 22.0134 210.649 21.8964 210.92 21.76C210.438 21.5073 209.918 21.335 209.38 21.25L208.93 21.38C208.97 21.578 208.97 21.782 208.93 21.98C208.906 22.0643 208.905 22.1535 208.928 22.2381C208.951 22.3228 208.997 22.3995 209.06 22.46H209.08ZM212.35 38V34.3L212.16 34.05L210.49 34.56C209.968 34.7198 209.473 34.9557 209.02 35.26V36.86C209.436 37.1987 209.915 37.4503 210.43 37.6C210.932 37.7469 211.423 37.9273 211.9 38.14L212.35 38ZM213.44 26.67C213.712 26.5051 214.015 26.3963 214.33 26.35C214.62 26.3121 214.901 26.2241 215.16 26.09C214.903 25.9611 214.635 25.854 214.36 25.77C214.104 25.6963 213.858 25.5887 213.63 25.45L213.24 25.58C213.29 25.7803 213.29 25.9897 213.24 26.19C213.217 26.2704 213.211 26.3548 213.223 26.4375C213.236 26.5203 213.265 26.5995 213.31 26.67H213.44ZM216.57 48C216.44 47.2489 216.44 46.4811 216.57 45.73C216.697 44.9845 216.611 44.2182 216.32 43.52C215.831 43.3998 215.35 43.2495 214.88 43.07C214.474 42.912 214.056 42.7849 213.63 42.69L213.31 42.75C213.35 43.4961 213.35 44.2439 213.31 44.99C213.269 45.6938 213.289 46.3997 213.37 47.1C213.88 47.32 214.37 47.51 214.84 47.68L216.32 48.19L216.57 48ZM216.57 8.13C216.44 7.36678 216.42 6.58893 216.51 5.82C216.593 5.06808 216.528 4.30727 216.32 3.58C215.78 3.46601 215.254 3.29506 214.75 3.07C214.288 2.86856 213.805 2.71768 213.31 2.62V7C213.731 7.26653 214.194 7.4593 214.68 7.57C215.216 7.69717 215.726 7.91352 216.19 8.21L216.57 8.13ZM216.57 13.7C216.441 12.9703 216.421 12.2256 216.51 11.49C216.59 10.7678 216.526 10.0369 216.32 9.34C215.77 9.21826 215.241 9.01608 214.75 8.74C214.319 8.47399 213.816 8.34821 213.31 8.38V12.74C213.707 13.0458 214.182 13.233 214.68 13.28C215.228 13.3475 215.749 13.5578 216.19 13.89L216.57 13.7ZM216.57 19.52C216.44 18.7601 216.42 17.9856 216.51 17.22C216.595 16.488 216.531 15.7462 216.32 15.04C215.774 14.9161 215.246 14.7211 214.75 14.46C214.307 14.2204 213.814 14.0901 213.31 14.08V18.37C213.733 18.6419 214.195 18.8476 214.68 18.98C215.204 19.1242 215.71 19.3254 216.19 19.58L216.57 19.52ZM216.57 25.02C216.44 24.314 216.42 23.5922 216.51 22.88C216.592 22.181 216.527 21.4726 216.32 20.8C215.76 20.59 215.24 20.37 214.75 20.16C214.297 19.9564 213.807 19.8475 213.31 19.84V24.13C213.713 24.4377 214.182 24.6466 214.68 24.74C215.209 24.8376 215.719 25.0199 216.19 25.28L216.57 25.02ZM216.57 42.24V38.53L216.32 38.21C215.816 38.4764 215.291 38.7005 214.75 38.88C214.251 39.0338 213.768 39.2382 213.31 39.49V41.34C213.708 41.6448 214.182 41.835 214.68 41.89C215.219 41.95 215.736 42.1349 216.19 42.43L216.57 42.24ZM216.57 53.57V49.66L216.32 49.22L214.88 48.77C214.454 48.6491 214.036 48.4987 213.63 48.32L213.31 48.45V52.74C213.709 53.0472 214.181 53.2438 214.68 53.31C215.218 53.3985 215.732 53.5959 216.19 53.89L216.57 53.57ZM218.24 2.21C218.651 2.12472 219.041 1.9618 219.39 1.73C218.571 1.44869 217.722 1.26411 216.86 1.18C216.007 1.13404 215.162 1.37327 214.46 1.86C214.862 1.94705 215.256 2.06404 215.64 2.21C216.066 2.36823 216.483 2.54847 216.89 2.75C217.309 2.49957 217.764 2.31729 218.24 2.21Z" fill="#07004D"/>
<path d="M223.16 60.74V54.66C224.348 54.0951 225.578 53.6237 226.84 53.25C228.23 52.82 229.58 52.4 230.91 51.97L231.1 51.84L231.48 51.26V16.77L231.16 16.45C228.95 17.64 226.34 17.54 223.36 16.13L223.16 15.81V10.05C223.16 9.96001 223.4 9.79001 223.87 9.54001C225.513 9.27766 227.129 8.86938 228.7 8.32001C230.3 7.76668 231.91 7.17001 233.53 6.53001L238.4 4.61001C239.984 3.96949 241.607 3.43171 243.26 3.00001C244.852 2.59752 246.48 2.34971 248.12 2.26001C249.764 2.18022 251.41 2.37626 252.99 2.84001C253.07 3.27183 253.09 3.71267 253.05 4.15001C253.007 4.58772 253.031 5.02932 253.12 5.46001C253.046 6.09787 253.046 6.74215 253.12 7.38001C253.185 7.98894 253.11 8.60477 252.9 9.18001C252.9 9.18001 252.77 9.25001 252.64 9.40001C252.51 9.55001 252.39 9.54001 252.26 9.40001C251.07 9.87001 249.86 10.29 248.64 10.68C247.42 11.07 246.2 11.47 244.96 11.89C244.753 17.7767 244.69 23.59 244.77 29.33C244.85 35.07 244.85 40.9067 244.77 46.84L244.96 47.16C246.184 46.5021 247.577 46.2237 248.96 46.36C250.356 46.5306 251.718 46.9116 253 47.49C253.08 48.4679 253.1 49.4497 253.06 50.43C253.019 51.4538 253.043 52.4791 253.13 53.5L252.87 53.76C248.597 55.1733 244.383 56.6033 240.23 58.05C236.077 59.4967 231.863 60.83 227.59 62.05L227.21 62.18C225.885 61.6319 224.533 61.1513 223.16 60.74ZM227.16 16.26V12.42L226.84 11.9C226.372 11.7791 225.911 11.6322 225.46 11.46L224.32 11L224 11.13V15.13C224.138 15.3125 224.312 15.4655 224.51 15.58C224.931 15.6212 225.342 15.7399 225.72 15.93C226.096 16.1155 226.483 16.2758 226.88 16.41L227.16 16.26ZM227.16 60.86C227.044 60.1313 227.044 59.3888 227.16 58.66C227.269 57.9313 227.172 57.1864 226.88 56.51C226.436 56.2985 225.974 56.1278 225.5 56C225.099 55.9124 224.704 55.7954 224.32 55.65L224 55.71V59.71C224.386 60.0509 224.844 60.3004 225.34 60.44C225.847 60.5933 226.337 60.7533 226.81 60.92L227.16 60.86ZM228.88 10.62C229.098 10.6173 229.313 10.5708 229.512 10.4831C229.711 10.3955 229.891 10.2686 230.04 10.11C229.581 10.0604 229.135 9.93184 228.72 9.73001C228.313 9.52531 227.865 9.41588 227.41 9.41001C227.053 9.61225 226.664 9.75098 226.26 9.82001C225.882 9.88843 225.515 10.0096 225.17 10.18C225.554 10.4139 225.978 10.5765 226.42 10.66C226.865 10.7343 227.29 10.8975 227.67 11.14C228.009 10.8191 228.454 10.634 228.92 10.62H228.88ZM228.88 55.26C229.297 55.0755 229.724 54.9152 230.16 54.78C229.692 54.698 229.233 54.5707 228.79 54.4C228.383 54.242 227.966 54.1149 227.54 54.02C227.145 54.1966 226.737 54.3437 226.32 54.46C225.9 54.59 225.51 54.7 225.17 54.78C225.6 54.96 226 55.12 226.39 55.26C226.78 55.4 227.16 55.55 227.54 55.68C228.017 55.6061 228.482 55.4647 228.92 55.26H228.88ZM233.08 9.26001L234.26 8.87001C233.876 8.62055 233.448 8.44426 233 8.35001C232.586 8.28825 232.182 8.1705 231.8 8.00001C231.643 8.1455 231.443 8.23664 231.23 8.26001C231.073 8.26681 230.919 8.30776 230.78 8.38001C230.649 8.36304 230.517 8.37197 230.39 8.40629C230.263 8.44061 230.144 8.49964 230.04 8.58001C229.849 8.73305 229.614 8.8207 229.37 8.83001C229.785 8.95582 230.192 9.10609 230.59 9.28001C230.984 9.45398 231.388 9.60425 231.8 9.73001C232.228 9.53107 232.669 9.3607 233.12 9.22001L233.08 9.26001ZM233.01 53.9C233.447 53.8694 233.864 53.7014 234.2 53.42C233.78 53.2168 233.337 53.0657 232.88 52.97C232.48 52.88 232.06 52.78 231.64 52.65C231.234 52.8271 230.816 52.9774 230.39 53.1C230.016 53.1902 229.658 53.3387 229.33 53.54C229.67 53.63 230.05 53.75 230.45 53.9C230.85 54.05 231.29 54.23 231.76 54.44C232.105 54.096 232.564 53.8898 233.05 53.86L233.01 53.9ZM235.6 18.98C235.52 18.3567 235.5 17.7272 235.54 17.1C235.58 16.4895 235.56 15.8765 235.48 15.27L235.28 15.21C234.975 15.4077 234.636 15.5468 234.28 15.62C233.929 15.6847 233.591 15.8063 233.28 15.98H232.83L232.26 16.36C232.3 16.6687 232.3 16.9813 232.26 17.29C232.22 17.6052 232.261 17.9253 232.38 18.22C232.836 18.4251 233.308 18.5955 233.79 18.73C234.263 18.8611 234.716 19.0527 235.14 19.3L235.6 18.98ZM235.6 41.38C235.476 40.6733 235.456 39.9525 235.54 39.24C235.624 38.541 235.559 37.8322 235.35 37.16C234.883 36.9933 234.413 36.8133 233.94 36.62C233.47 36.42 233 36.24 232.53 36.07L232.28 36.26C232.32 36.9961 232.32 37.7339 232.28 38.47C232.235 39.1391 232.275 39.8112 232.4 40.47C232.843 40.7146 233.317 40.8963 233.81 41.01C234.286 41.1209 234.742 41.3065 235.16 41.56L235.6 41.38ZM235.6 24.49V20.67C235.514 20.5361 235.406 20.4178 235.28 20.32L235.09 20.16C234.638 20.1103 234.196 19.9923 233.78 19.81L232.66 19.33L232.28 19.46V23.46L232.53 23.84C232.971 24.05 233.434 24.211 233.91 24.32C234.338 24.4237 234.756 24.5642 235.16 24.74L235.6 24.49ZM235.6 30.25C235.476 29.54 235.456 28.8158 235.54 28.1C235.624 27.401 235.559 26.6922 235.35 26.02C234.883 25.8067 234.413 25.6167 233.94 25.45L232.53 24.94L232.28 25.13V29.13L232.53 29.57C232.988 29.6569 233.439 29.7772 233.88 29.93C234.316 30.0862 234.744 30.2665 235.16 30.47L235.6 30.25ZM235.6 35.75C235.476 35.0433 235.456 34.3225 235.54 33.61C235.624 32.911 235.559 32.2022 235.35 31.53C234.932 31.2807 234.476 31.1017 234 31C233.505 30.9026 233.029 30.7271 232.59 30.48L232.34 30.68V34.68C232.755 35.0592 233.262 35.3244 233.81 35.45C234.343 35.5694 234.858 35.7612 235.34 36.02L235.6 35.75ZM235.6 46.95C235.485 46.2178 235.485 45.4722 235.6 44.74C235.711 44.0136 235.61 43.2708 235.31 42.6C234.755 42.4695 234.21 42.2991 233.68 42.09C233.248 41.8958 232.783 41.7871 232.31 41.77V45.77L232.56 46.15C233.001 46.36 233.464 46.521 233.94 46.63C234.386 46.738 234.809 46.9242 235.19 47.18L235.6 46.95ZM235.6 52.52C235.476 51.7999 235.456 51.0658 235.54 50.34C235.62 49.6674 235.555 48.9854 235.35 48.34C234.71 48.08 234.15 47.87 233.68 47.7C233.21 47.53 232.83 47.4 232.53 47.31L232.28 47.44V51.44C232.392 51.645 232.573 51.8042 232.79 51.89C233.202 51.9857 233.607 52.1128 234 52.27C234.43 52.45 234.81 52.59 235.16 52.72L235.6 52.52ZM237.24 7.88001C237.678 7.82215 238.089 7.63404 238.42 7.34001C237.6 7.03766 236.734 6.8754 235.86 6.86001C235.03 6.81206 234.211 7.07197 233.56 7.59001C233.98 7.63588 234.39 7.7543 234.77 7.94001C235.156 8.13474 235.566 8.27603 235.99 8.36001C236.371 8.08317 236.814 7.90455 237.28 7.84001L237.24 7.88001ZM241.46 6.50001C241.902 6.36773 242.334 6.20054 242.75 6.00001C242.28 5.90992 241.818 5.77944 241.37 5.61001C240.92 5.44001 240.51 5.29001 240.12 5.16001C239.837 5.24848 239.559 5.35537 239.29 5.48001C239.053 5.60773 238.789 5.67635 238.52 5.68001C238.39 5.78319 238.24 5.85813 238.08 5.90001C237.968 5.91203 237.859 5.94601 237.76 6.00001C238.164 6.11463 238.559 6.26178 238.94 6.44001C239.322 6.61731 239.717 6.76767 240.12 6.89001C240.593 6.73668 241.053 6.59335 241.5 6.46001L241.46 6.50001ZM245.52 5.13001L246.74 4.65001C246.31 4.45394 245.861 4.30312 245.4 4.20001C244.997 4.12798 244.607 4.00008 244.24 3.82001C243.82 4.02945 243.381 4.20015 242.93 4.33001C242.569 4.42376 242.217 4.55098 241.88 4.71001C242.22 4.80001 242.59 4.92001 243 5.06001C243.41 5.20001 243.84 5.39001 244.31 5.61001L245.52 5.13001ZM245.01 49.9L245.91 49.61L246.74 49.32C246.457 49.2184 246.18 49.1015 245.91 48.97C245.68 48.8579 245.443 48.761 245.2 48.68L244.82 48.81C244.869 48.9969 244.869 49.1931 244.82 49.38C244.784 49.4662 244.773 49.561 244.789 49.6532C244.805 49.7453 244.847 49.831 244.91 49.9H245.01ZM248.57 4.10001C248.981 3.84676 249.441 3.68319 249.92 3.62001C250.347 3.56272 250.759 3.41988 251.13 3.20001C248.96 2.35001 247.27 2.39001 246.13 3.33001C246.959 3.52344 247.771 3.78088 248.56 4.10001H248.57ZM249.76 48.29C250.214 48.2657 250.648 48.0976 251 47.81C250.177 47.4051 249.291 47.1446 248.38 47.04C247.98 47.2399 247.561 47.4007 247.13 47.52C246.777 47.6074 246.439 47.749 246.13 47.94C246.512 47.9942 246.887 48.088 247.25 48.22C247.66 48.37 248.09 48.56 248.56 48.77C248.891 48.4732 249.316 48.3032 249.76 48.29Z" fill="#07004D"/>
<path d="M261 59.94C260.295 59.7284 259.6 59.4814 258.92 59.2C258.88 58.7308 258.88 58.2591 258.92 57.79C258.96 57.3052 258.871 56.8184 258.66 56.38C258.043 56.0948 257.4 55.8704 256.74 55.71C256.071 55.5502 255.426 55.3048 254.82 54.98C254.7 48.4133 254.67 41.8633 254.73 35.33C254.79 28.7967 254.79 22.2033 254.73 15.55C255.318 15.1923 255.95 14.9133 256.61 14.72C257.32 14.51 258.01 14.27 258.69 14.02L258.95 13.63V8.57999L259.21 8.31999C262.767 7.58547 266.21 6.3816 269.45 4.73999C271.035 3.88502 272.781 3.36887 274.577 3.22427C276.372 3.07967 278.178 3.30977 279.88 3.89999C280.062 4.04097 280.253 4.17119 280.45 4.28999C280.538 4.66664 280.562 5.05545 280.52 5.43999C280.475 5.82397 280.495 6.21278 280.58 6.58999L280.84 6.97999C281.43 7.22999 282.06 7.46999 282.73 7.67999C283.4 7.88999 284.04 8.12999 284.68 8.37999C284.76 10.3 284.78 12.22 284.74 14.14C284.7 16.06 284.7 17.98 284.74 19.9L284.36 20.35C283.247 20.65 282.157 20.96 281.09 21.28C280.03 21.6 278.96 21.97 277.89 22.4C276.859 22.7958 275.745 22.9272 274.649 22.7822C273.554 22.6372 272.513 22.2205 271.62 21.57C271.49 20.2606 271.47 18.9427 271.56 17.63C271.64 16.2937 271.576 14.9527 271.37 13.63C270.295 13.8651 269.243 14.1999 268.23 14.63C268.01 20.5233 267.947 26.3467 268.04 32.1C268.133 37.8533 268.12 43.6667 268 49.54L268.32 49.86C268.779 49.8072 269.226 49.6753 269.64 49.47C270.057 49.2684 270.497 49.1173 270.95 49.02L271.14 48.96L271.59 48.38V37.89L271.78 37.63L274.95 36.63C275.95 36.29 277.05 35.9 278.12 35.48C279.175 35.0782 280.311 34.9321 281.434 35.0538C282.557 35.1754 283.635 35.5614 284.58 36.18L284.77 36.5V47.94C284.521 48.061 284.287 48.2085 284.07 48.38C283.961 48.3433 283.845 48.3359 283.732 48.3588C283.62 48.3816 283.516 48.4338 283.43 48.51C283.224 48.664 282.977 48.7544 282.72 48.77C282.303 48.927 281.875 49.054 281.44 49.15C281.268 49.1816 281.105 49.2498 280.962 49.3498C280.819 49.4499 280.699 49.5795 280.61 49.73V54.73L280.36 55.05C277.5 56.03 274.65 57.03 271.81 58.05C268.97 59.07 266.08 59.9533 263.14 60.7H263C262.355 60.3928 261.686 60.1386 261 59.94ZM258.86 21.76V17.76C258.711 17.5665 258.536 17.3949 258.34 17.25C257.822 17.203 257.315 17.0712 256.84 16.86C256.429 16.6674 255.984 16.5587 255.53 16.54V20.54L255.85 20.93C256.267 21.1384 256.707 21.2994 257.16 21.41C257.62 21.5257 258.062 21.7076 258.47 21.95L258.86 21.76ZM258.86 27.39C258.745 26.6377 258.745 25.8723 258.86 25.12C258.975 24.3997 258.899 23.6619 258.64 22.98C258.199 22.77 257.736 22.6091 257.26 22.5C256.835 22.3978 256.42 22.2573 256.02 22.08L255.57 22.14V26.14L255.82 26.39L256.08 26.65C256.499 26.7014 256.909 26.809 257.3 26.97C257.72 27.14 258.13 27.29 258.51 27.42L258.86 27.39ZM258.86 32.9C258.773 32.1768 258.75 31.4473 258.79 30.72C258.827 30.0528 258.807 29.3837 258.73 28.72C258.169 28.4439 257.591 28.2034 257 28C256.532 27.8441 256.05 27.7369 255.56 27.68V31.68L255.88 32.06C256.294 32.277 256.734 32.4384 257.19 32.54C257.652 32.6548 258.094 32.8404 258.5 33.09L258.86 32.9ZM258.86 38.46V34.46C258.708 34.2666 258.533 34.092 258.34 33.94C257.888 33.8903 257.446 33.7723 257.03 33.59C256.577 33.3967 256.227 33.2367 255.98 33.11L255.53 33.24V37.24L255.85 37.63C256.277 37.8035 256.715 37.9505 257.16 38.07C257.61 38.2 258.04 38.35 258.47 38.52L258.86 38.46ZM258.86 44.03V40.19L258.6 39.68C258.017 39.5545 257.448 39.3736 256.9 39.14C256.473 38.9263 256.007 38.8036 255.53 38.78V42.78L255.85 43.16C256.267 43.3684 256.707 43.5294 257.16 43.64C257.62 43.7557 258.062 43.9376 258.47 44.18L258.86 44.03ZM258.86 49.66C258.745 48.9077 258.745 48.1423 258.86 47.39C258.974 46.6697 258.898 45.932 258.64 45.25C258.09 45.1357 257.554 44.9648 257.04 44.74C256.58 44.5255 256.078 44.4162 255.57 44.42V48.42L255.89 48.8C256.304 49.017 256.744 49.1784 257.2 49.28C257.646 49.3898 258.083 49.5301 258.51 49.7L258.86 49.66ZM258.86 55.17C258.733 54.474 258.709 53.7629 258.79 53.06C258.875 52.3513 258.831 51.633 258.66 50.94L257.19 50.43C256.733 50.2661 256.285 50.0758 255.85 49.86L255.53 50.05V54.05L255.85 54.43C256.745 54.6614 257.621 54.9623 258.47 55.33L258.86 55.17ZM259.37 16.51C259.746 16.2674 260.163 16.0946 260.6 16C260.991 15.9376 261.376 15.8406 261.75 15.71L261.69 15.52L259.61 15.04C258.946 14.8923 258.252 14.9957 257.66 15.33C257.514 15.45 257.337 15.5263 257.15 15.55C256.98 15.55 256.89 15.65 256.89 15.78C257.314 15.7761 257.733 15.8756 258.11 16.07C258.49 16.26 258.88 16.44 259.26 16.61L259.37 16.51ZM263 59.39C262.96 58.7506 262.96 58.1094 263 57.47C263.041 56.8271 262.998 56.1815 262.87 55.55H262.62C262.46 55.6974 262.256 55.7887 262.04 55.81C261.882 55.8171 261.728 55.8616 261.59 55.94C260.933 56.0159 260.311 56.2798 259.8 56.7C259.84 56.9987 259.84 57.3013 259.8 57.6C259.759 57.9062 259.804 58.2178 259.93 58.5C260.403 58.7067 260.873 58.8967 261.34 59.07L262.68 59.58L263 59.39ZM263 14.72V10.94L262.68 10.37C262.25 10.24 261.82 10.09 261.37 9.91999C260.92 9.74999 260.51 9.59999 260.12 9.46999L259.8 9.59999V13.6L260.12 13.99C260.532 14.1956 260.974 14.334 261.43 14.4C261.876 14.468 262.303 14.6317 262.68 14.88L263 14.72ZM264.76 9.05999C265.179 8.96129 265.58 8.79944 265.95 8.57999C265.161 8.25647 264.314 8.10009 263.462 8.12075C262.61 8.1414 261.772 8.33864 261 8.69999C261.393 8.90969 261.814 9.06127 262.25 9.14999C262.68 9.24961 263.096 9.4007 263.49 9.59999C263.866 9.34432 264.287 9.16117 264.73 9.05999H264.76ZM270.17 7.29999C269.393 6.95755 268.554 6.78069 267.705 6.78069C266.856 6.78069 266.017 6.95755 265.24 7.29999L266.46 7.77999C266.84 7.92999 267.23 8.05999 267.61 8.18999C268.35 7.93999 269.2 7.63999 270.14 7.29999H270.17ZM268.38 52.54C268.692 52.3694 269.03 52.2512 269.38 52.19C269.666 52.1524 269.934 52.0306 270.15 51.84C269.78 51.7587 269.415 51.6517 269.06 51.52C268.744 51.3827 268.39 51.3614 268.06 51.46C268.1 51.658 268.1 51.862 268.06 52.06C268.033 52.144 268.031 52.234 268.054 52.3191C268.078 52.4042 268.125 52.4809 268.19 52.54H268.38ZM273.08 6.29999C273.521 6.24227 273.936 6.05427 274.27 5.75999C273.833 5.71527 273.406 5.60748 273 5.43999C272.623 5.28604 272.235 5.15905 271.84 5.05999C271.156 5.45936 270.39 5.69867 269.6 5.75999L269.41 6.01999C269.855 6.05421 270.289 6.173 270.69 6.36999C271.055 6.55312 271.441 6.69082 271.84 6.77999C272.206 6.53852 272.618 6.37512 273.05 6.29999H273.08ZM273 51C273.448 50.9345 273.881 50.7924 274.28 50.58C273.966 50.3505 273.603 50.1965 273.22 50.13C272.863 50.0773 272.522 49.9476 272.22 49.75C271.223 49.8195 270.256 50.1245 269.4 50.64C270.254 50.7698 271.078 51.0544 271.83 51.48C272.163 51.2063 272.571 51.0391 273 51ZM275.49 21.78C275.4 21.026 275.4 20.264 275.49 19.51C275.596 18.7812 275.499 18.0372 275.21 17.36C274.758 17.1986 274.297 17.0617 273.83 16.95C273.394 16.8443 272.974 16.683 272.58 16.47L272.26 16.66C272.3 17.3961 272.3 18.1339 272.26 18.87C272.217 19.5395 272.261 20.2117 272.39 20.87C273.352 21.1807 274.291 21.5583 275.2 22L275.49 21.78ZM275.49 16.15C275.45 15.5106 275.45 14.8694 275.49 14.23C275.53 13.5895 275.51 12.9467 275.43 12.31H275.11C274.6 12.52 274.11 12.71 273.57 12.88C273.133 13.0276 272.706 13.2013 272.29 13.4V15C272.411 15.2125 272.587 15.3886 272.8 15.51C273.221 15.5537 273.632 15.6616 274.02 15.83C274.417 16.0056 274.824 16.1559 275.24 16.28L275.49 16.15ZM275.49 44.05C275.45 43.3272 275.45 42.6028 275.49 41.88C275.527 41.2128 275.507 40.5437 275.43 39.88C274.96 39.6393 274.468 39.4451 273.96 39.3C273.501 39.1787 273.05 39.0284 272.61 38.85L272.29 38.98V42.98L272.61 43.37C273.06 43.4575 273.5 43.595 273.92 43.78C274.348 43.9719 274.789 44.1323 275.24 44.26L275.49 44.05ZM275.49 49.68C275.41 48.9254 275.41 48.1645 275.49 47.41C275.579 46.6912 275.514 45.9619 275.3 45.27C274.873 45.1367 274.403 44.9767 273.89 44.79C273.38 44.6 272.97 44.46 272.68 44.37L272.29 44.44V48.44L272.61 48.82C273.025 49.0339 273.465 49.1951 273.92 49.3C274.369 49.4097 274.81 49.55 275.24 49.72L275.49 49.68ZM276 5.37999C276.37 5.12386 276.801 4.96876 277.25 4.92999C277.687 4.88752 278.1 4.70916 278.43 4.41999C277.737 4.30036 277.064 4.08496 276.43 3.77999C275.428 3.88177 274.452 4.16291 273.55 4.60999C274.378 4.80748 275.19 5.06483 275.98 5.37999H276ZM277.21 38.38C277.68 38.29 278.13 38.18 278.56 38.06C278.193 37.9114 277.82 37.7812 277.44 37.67C277.068 37.5695 276.711 37.4181 276.38 37.22L274.94 37.51C274.442 37.6034 273.973 37.8123 273.57 38.12C274.419 38.2649 275.24 38.5451 276 38.95C276.344 38.629 276.776 38.4168 277.24 38.34L277.21 38.38ZM281.41 37.03C281.834 36.942 282.249 36.8148 282.65 36.65C281.898 36.224 281.049 36.0001 280.185 36.0001C279.321 36.0001 278.472 36.224 277.72 36.65C278.131 36.8172 278.561 36.9347 279 37C279.416 37.0844 279.808 37.2585 280.15 37.51C280.555 37.2836 280.989 37.1121 281.44 37L281.41 37.03ZM281.72 9.09999C282 8.98666 282.27 8.86666 282.53 8.73999C282.267 8.61703 281.996 8.51017 281.72 8.41999C281.479 8.35417 281.252 8.24579 281.05 8.09999L280.61 8.22999C280.65 8.45154 280.65 8.67844 280.61 8.89999C280.582 9.0001 280.585 9.10644 280.619 9.20475C280.653 9.30305 280.716 9.38863 280.8 9.44999L281.72 9.09999Z" fill="#07004D"/>
</g>
<defs>
<clipPath id="clip0_40_166">
<rect width="284.75" height="62.21" fill="white"/>
</clipPath>
</defs>
</svg>
