<svg width="75" height="75" viewBox="0 0 75 75" fill="none" xmlns="http://www.w3.org/2000/svg">
<mask id="mask0_38_255" style="mask-type:alpha" maskUnits="userSpaceOnUse" x="0" y="0" width="75" height="75">
<rect width="75" height="75" fill="#D9D9D9"/>
</mask>
<g mask="url(#mask0_38_255)">
<path d="M37.125 71.1875C33.375 67.6458 29.0781 64.9375 24.2344 63.0625C19.3906 61.1875 14.3125 60.25 9 60.25V25.875C14.2604 25.875 19.3125 26.8255 24.1562 28.7266C29 30.6276 33.3229 33.375 37.125 36.9688C40.9271 33.375 45.25 30.6276 50.0938 28.7266C54.9375 26.8255 59.9896 25.875 65.25 25.875V60.25C59.8854 60.25 54.7943 61.1875 49.9766 63.0625C45.1589 64.9375 40.875 67.6458 37.125 71.1875ZM37.125 63.0625C40.4062 60.6146 43.8958 58.6615 47.5938 57.2031C51.2917 55.7448 55.0938 54.7812 59 54.3125V32.75C55.1979 33.4271 51.4609 34.7943 47.7891 36.8516C44.1172 38.9089 40.5625 41.6562 37.125 45.0938C33.6875 41.6562 30.1328 38.9089 26.4609 36.8516C22.7891 34.7943 19.0521 33.4271 15.25 32.75V54.3125C19.1562 54.7812 22.9583 55.7448 26.6562 57.2031C30.3542 58.6615 33.8438 60.6146 37.125 63.0625ZM37.125 29C33.6875 29 30.7448 27.776 28.2969 25.3281C25.849 22.8802 24.625 19.9375 24.625 16.5C24.625 13.0625 25.849 10.1198 28.2969 7.67188C30.7448 5.22396 33.6875 4 37.125 4C40.5625 4 43.5052 5.22396 45.9531 7.67188C48.401 10.1198 49.625 13.0625 49.625 16.5C49.625 19.9375 48.401 22.8802 45.9531 25.3281C43.5052 27.776 40.5625 29 37.125 29ZM37.125 22.75C38.8438 22.75 40.3151 22.138 41.5391 20.9141C42.763 19.6901 43.375 18.2188 43.375 16.5C43.375 14.7812 42.763 13.3099 41.5391 12.0859C40.3151 10.862 38.8438 10.25 37.125 10.25C35.4062 10.25 33.9349 10.862 32.7109 12.0859C31.487 13.3099 30.875 14.7812 30.875 16.5C30.875 18.2188 31.487 19.6901 32.7109 20.9141C33.9349 22.138 35.4062 22.75 37.125 22.75Z" fill="#28231C"/>
</g>
</svg>
