<svg width="75" height="75" viewBox="0 0 75 75" fill="none" xmlns="http://www.w3.org/2000/svg">
<mask id="mask0_43_2153" style="mask-type:alpha" maskUnits="userSpaceOnUse" x="0" y="0" width="75" height="75">
<rect width="75" height="75" fill="#D9D9D9"/>
</mask>
<g mask="url(#mask0_43_2153)">
<path d="M60.875 65.25L41.1875 45.5625C39.625 46.8125 37.8281 47.8021 35.7969 48.5312C33.7656 49.2604 31.6042 49.625 29.3125 49.625C23.6354 49.625 18.8307 47.6589 14.8984 43.7266C10.9661 39.7943 9 34.9896 9 29.3125C9 23.6354 10.9661 18.8307 14.8984 14.8984C18.8307 10.9661 23.6354 9 29.3125 9C34.9896 9 39.7943 10.9661 43.7266 14.8984C47.6589 18.8307 49.625 23.6354 49.625 29.3125C49.625 31.6042 49.2604 33.7656 48.5312 35.7969C47.8021 37.8281 46.8125 39.625 45.5625 41.1875L65.25 60.875L60.875 65.25ZM29.3125 43.375C33.2188 43.375 36.5391 42.0078 39.2734 39.2734C42.0078 36.5391 43.375 33.2188 43.375 29.3125C43.375 25.4062 42.0078 22.0859 39.2734 19.3516C36.5391 16.6172 33.2188 15.25 29.3125 15.25C25.4062 15.25 22.0859 16.6172 19.3516 19.3516C16.6172 22.0859 15.25 25.4062 15.25 29.3125C15.25 33.2188 16.6172 36.5391 19.3516 39.2734C22.0859 42.0078 25.4062 43.375 29.3125 43.375Z" fill="#28231C"/>
</g>
</svg>
